<?xml version="1.0" standalone="no"?>
<!DOCTYPE svg PUBLIC "-//W3C//DTD SVG 1.1//EN" "http://www.w3.org/Graphics/SVG/1.1/DTD/svg11.dtd" >
<svg>
<metadata>
Created by FontForge 20131022 at Fri Dec  6 00:18:55 2013
 By tsetsen,,,
Copyright (c) 2013 by Lkhamsuren Zeerd-Aduun Amarjargal
</metadata>
<defs>
<font id="Maral" horiz-adv-x="800" >
  <font-face 
    font-family="Maral"
    font-weight="500"
    font-stretch="normal"
    units-per-em="2048"
    panose-1="3 0 5 0 0 0 0 0 0 0"
    ascent="1516"
    descent="-532"
    bbox="-134 -430 2084.5 1540"
    underline-thickness="96"
    underline-position="-200"
    unicode-range="U+0020-FF1F"
  />
<missing-glyph horiz-adv-x="1264" 
d="M1200 83h-1134v1457h1134v-1457zM1139 130v1362h-1010v-1362h1010zM1099 1102h-883v199h105v-162h273v141h104v-141h401v-37zM1097 722q0 -124 -300 -127l-9 38q203 6 203 88q0 73 -148 73q-93 0 -136 -48l-82 -91q-63 -48 -197 -48q-81 0 -147 18q-96 28 -96 86
q0 108 263 111l8 -36q-168 -8 -168 -73q0 -69 132 -69q80 0 124 48l58.5 67.5t20.5 23.5q67 48 211 49q88 0 157 -20q106 -30 106 -90zM1082 327h-880v39h880v-39z" />
    <glyph glyph-name="uniF302" unicode="&#x1800;&#x180c;" horiz-adv-x="1000" 
d="M397 710h29q126 0 168 -136q5 -18 27 -40q-28 -28 -28 -49q0 -2 4 -14.5t24 -32.5q-24 -24 -27 -40q-19 -98 -166 -192q-111 -70 -111 -166q0 -22 32 -106q-68 -14 -108 71q-8 17 -23 31q18 15 24 30q15 46 51 81q22 21 33.5 32t49 38.5t52.5 40.5q96 75 96 180
q0 26 -27 47q27 21 27 49q0 142 -113 142t-113 -142q0 -120 111 -123l-12 -31q-19 -13 -33 -13q-101 2 -136 126q-5 21 -28 41q22 22 28 40q43 136 169 136zM428 678q96 75 96 180q0 26 -27 47q27 21 27 49q0 142 -113 142t-113 -142q0 -120 111 -123l-12 -31
q-19 -13 -33 -13q-101 2 -136 126q-5 21 -28 41q22 22 28 40q43 137 169 136h29q131 0 168 -136q5 -18 27 -40q-28 -28 -28 -49q0 -2 4 -14.5t24 -32.5q-24 -24 -27 -40q-15 -78 -109 -152zM635 705q65 66 65 153q0 25 -27 47q27 21 27 49q0 141 -113 141l15 35
q133 0 168 -136q5 -18 27 -40q-30 -30 -28 -49q0 -3 4 -15t24 -32q-24 -24 -27 -40q-13 -66 -84 -130q62 -35 84 -117q5 -17 27 -40q-33 -34 -28 -49q3 -9 4 -14q3 -21 24 -33q-24 -24 -27 -39q-15 -78 -109 -152l-57 11q96 75 96 180q0 26 -27 47q29 22 27 49
q-10 142 -83 142z" />
    <glyph glyph-name="ML_BA_A.initmedi" unicode="&#xf3c2;&#xf305;" horiz-adv-x="760" 
d="M54 514q1 -151 135.5 -151t134.5 151v75h-270v-75zM500 730q0 98 -69.5 157.5q-67.5 58.5 -153.5 58.5q-91 1 -157 -57.5t-66 -169.5h324v-283q0 -142 -123 -182q-33 -11 -65 -44q-33 35 -61 44q-129 40 -129 182v348q0 202 215 271q28 9 61 43q32 -33 66 -44
q211 -68 211 -270v-65h237v-130h-182v-162q0 -90 40 -130h-108q-40 41 -40 130v303z" />
    <glyph glyph-name="ML_BA_A.isolfina" unicode="&#xf3c2;&#xf308;" horiz-adv-x="990" 
d="M608 589v-162q0 -90 40 -130h-108q-40 41 -40 130v303q0 98 -69.5 157.5q-67.5 58.5 -153.5 58.5q-91 1 -157 -57.5t-66 -169.5h324v-283q0 -142 -123 -182q-33 -11 -65 -44q-33 35 -61 44q-129 40 -129 182v348q0 202 215 271q28 9 61 43q32 -33 66 -44
q211 -68 211 -270v-65h359q75 0 75 -76v-54q0 -267 -239 -506q-32 -32 -16.5 -60.5q14.5 -26.5 53.5 -26.5h107q76 -1 74 -97v-75q-15 43 -65 43h-134q-100 0 -91 129q1.432 20.764 102.5 199.5q100.5 179.5 100.5 360.5q-1 33 -32 33h-239zM54 514q0 -151 135 -151t135 151
v75h-270v-75z" />
    <glyph glyph-name="ML_BA_I.initmedi" unicode="&#xf3c3;&#xf3b1;" horiz-adv-x="820" 
d="M850 719v-130h-241q0 -204.58 25 -282q21 -64 116 -177q30 -36 34 -76q2 -17 -1 -32q-34 60 -111.5 122.5q-80.3685 64.632 -123.5 141.5q-49 87 -49 303v141q0 99 -68 157.5t-154 58.5q-91 1 -157 -57.5t-66 -169.5h324v-283q0 -142 -123 -182q-33 -11 -65 -44
q-33 35 -61 44q-129 41 -129 182v348q0 202 215 271q28 9 61 43q32 -33 66 -44q211 -68 211 -270v-65h297zM54 514q0 -151 135 -151t135 151v75h-270v-75z" />
    <glyph glyph-name="ML_BA_I.isolfina" unicode="&#xf3c2;&#xf30b;" horiz-adv-x="1090" 
d="M609 589q0 -198 35 -282q31 -76 116 -177q30 -36 34 -76q2 -17 -1 -32q-34 60 -111.5 122.5q-71.9903 57.6876 -123.5 141.5q-59 96 -59 303v141q0 99 -68 157.5t-154 58.5q-91 1 -157 -57.5t-66 -169.5h324v-283q0 -142 -123 -182q-33 -11 -65 -44q-33 35 -61 44
q-129 41 -129 182v348q0 202 215 271q28 9 61 43q32 -33 66 -44q211 -68 211 -270v-65h388q40 0 85 -66q44 -65 44 -172q-1 -122 -43 -162h-112q91 49 91 162q0 108 -91 108h-306zM54 514q0 -151 135 -151t135 151v75h-270v-75z" />
    <glyph glyph-name="ML_BA_O.initmedi" unicode="&#xf3c2;&#x180d;&#xf3a5;" horiz-adv-x="870" 
d="M0 436v348q0 202 215 271q28 9 60 43q28 -29 66 -44q10 -4 11 -4t9 4q36 13 65 44q33 -34 61 -43q215 -68 215 -271v-65h198v-130h-198v-153q0 -142 -129 -183q-28 -9 -60 -43q-32 33 -66 44q-63 20 -96 77q-33 -56 -96 -77q-34 -11 -66 -44q-33 34 -61 43
q-128 41 -128 183zM54 513q0 -151 135 -151t135 151v76h-270v-76zM54 719h594q0 111 -67 168.5t-155 58.5q-39 0 -75 -43q-32 43 -75 43q-87 0 -154.5 -59t-67.5 -168zM378 513q0 -151 134 -151t136 151v76h-270v-76z" />
    <glyph glyph-name="ML_BA_O.isolfina" unicode="&#xf3c2;&#xf30e;" horiz-adv-x="710" 
d="M702 436q0 -142 -129 -183q-28 -9 -60 -43q-32 33 -66 44q-63 20 -96 77q-33 -56 -96 -77q-34 -11 -66 -44q-33 34 -61 43q-128 41 -128 183v348q0 202 215 271q28 9 60 43q28 -29 66 -44q10 -4 11 -4t9 4q36 13 65 44q33 -34 61 -43q215 -68 215 -271v-348zM54 513
q0 -151 135 -151t135 151v76h-270v-76zM54 719h594q0 111 -67 168.5t-155 58.5q-39 0 -75 -43q-32 43 -75 43q-87 0 -154.5 -59t-67.5 -168zM378 513q0 -151 134 -151t136 151v76h-270v-76z" />
    <glyph glyph-name="ML_BA_OE.init" unicode="&#xf3c3;&#xf3a6;" horiz-adv-x="1130" 
d="M702 589v-153q0 -142 -129 -183q-28 -9 -60 -43q-32 33 -66 44q-63 20 -96 77q-33 -56 -96 -77q-34 -11 -66 -44q-33 34 -61 43q-128 41 -128 183v348q0 202 215 271q28 9 60 43q28 -29 66 -44q10 -4 11 -4t9 4q36 13 65 44q33 -34 61 -43q215 -68 215 -271v-65h458v-130
h-230q0 -204.58 25 -282q21 -64 116 -177q30 -36 34 -76q2 -17 -1 -32q-34 60 -111.5 122.5q-87.5 70.5 -123.5 141.5q-49 100 -49 303h-118zM378 513q0 -151 134 -151t136 151v76h-270v-76zM54 719h594q0 111 -67 168.5t-155 58.5q-39 0 -75 -43q-32 43 -75 43
q-87 0 -154.5 -59t-67.5 -168zM54 513q0 -151 135 -151t135 151v76h-270v-76z" />
    <glyph glyph-name="ML_BA_OE.isolfina" unicode="&#xf3c2;&#xf311;" horiz-adv-x="1160" 
d="M702 589v-153q0 -142 -129 -183q-28 -9 -60 -43q-32 33 -66 44q-63 20 -96 77q-33 -56 -96 -77q-34 -11 -66 -44q-33 34 -61 43q-128 41 -128 183v348q0 202 215 271q28 9 60 43q28 -29 66 -44q10 -4 11 -4t9 4q36 13 65 44q33 -34 61 -43q215 -68 215 -271v-65h329
q40 0 85 -66q44 -65 44 -172q-1 -122 -43 -162h-112q91 49 91 162q0 108 -91 108h-303zM54 513q0 -151 135 -151t135 151v76h-270v-76zM54 719h594q0 111 -67 168.5t-155 58.5q-39 0 -75 -43q-32 43 -75 43q-87 0 -154.5 -59t-67.5 -168zM378 513q0 -151 134 -151t136 151
v76h-270v-76z" />
    <glyph glyph-name="ML_BA_EE.initmedi" unicode="&#xf3c2;&#xf3be;" horiz-adv-x="960" 
d="M990 719v-130h-383q0 -155 17 -211q32 -107 89 -176q44 -54 85 -40q44 16 42 80q80 -46 21 -136q-31 -48 -97 -46q-4 -57 -52 -91q24 115 -15 192q-18 34 -69.5 89t-76.5 97q-52 87 -52 242v141q0 99 -68 157.5t-154 58.5q-91 1 -157 -57.5t-66 -169.5h324v-283
q0 -142 -123 -182q-33 -11 -65 -44q-33 35 -61 44q-129 41 -129 182v348q0 203 215 271q28 9 61 43q32 -33 66 -44q211 -68 211 -270v-65h437zM54 514q0 -151 135 -151t135 151v75h-270v-75z" />
    <glyph glyph-name="ML_BA_EE.isolfina" unicode="&#xf3c2;&#xf313;" horiz-adv-x="1200" 
d="M499 589v141q0 99 -68 157.5t-154 58.5q-91 1 -157 -57.5t-66 -169.5h324v-283q0 -142 -123 -182q-33 -11 -65 -44q-33 35 -61 44q-129 41 -129 182v348q0 203 215 271q28 9 61 43q32 -33 66 -44q211 -68 211 -270v-65h518q40 0 85 -66q44 -65 44 -172q-1 -122 -43 -162
h-112q91 49 91 162q0 109 -91 108h-438q0 -155 17 -211q32 -107 89 -176q44 -54 85 -40q44 16 42 80q80 -46 21 -136q-31 -48 -97 -46q-4 -57 -52 -91q24 115 -15 192q-18 34 -69.5 89t-76.5 97q-52 87 -52 242zM54 514q0 -151 135 -151t135 151v75h-270v-75z" />
    <glyph glyph-name="ML_PA_A.initmedi" unicode="&#xf3c5;&#xf305;" horiz-adv-x="760" 
d="M55 719h324v-283q0 -142 -123 -182q-34 -11 -66 -44q-32 34 -60 43q-8 3 -27 13.5t-22 10.5q-27.2002 0 -32 -72q-4 -74 56 -74h45q76 -1 74 -97v-75q-15 43 -65 43h-72q-87.0156 0 -86 129q0 79 22 135q16 42 0 76q0 1 -4 12q-4.2822 11.775 -5 12q33.1904 41 38 41
q19 -1 56.5 -23t82.5 -22q134 1 134 152v75h-325v195q0 202 215 271q28 9 61 43q32 -33 66 -44q211 -68 211 -270v-65h237v-130h-182v-162q0 -90 40 -130h-108q-40 41 -40 130v303q0 98 -69.5 157.5q-67.5 58.5 -153.5 58.5q-91 1 -157 -57.5
q-65.6489 -58.189 -65.9981 -168.32z" />
    <glyph glyph-name="ML_PA_A.isolfina" unicode="&#xf3c5;&#xf308;" horiz-adv-x="995" 
d="M608 589v-162q0 -90 40 -130h-108q-40 41 -40 130v303q0 98 -69.5 157.5q-67.5 58.5 -153.5 58.5q-91 1 -157 -57.5t-65.9981 -168.32l0.9981 -1.18h324v-283q0 -142 -123 -182q-34 -11 -66 -44q-30 32 -60 43q-8 3 -27 13.5t-22 10.5q-28 0 -32 -72q-4 -74 56 -74h45
q76 -1 74 -97v-75q-15 43 -65 43h-72q-87 0 -86 129q0 40.5766 22 135v76q0 1 -4 12q-4 12 -5 12q33 41 38 41q19 -1 56.5 -23t82.5 -22q134 1 134 152v75h-325v195q0 202 215 271q28 9 61 43q32 -33 66 -44q211 -68 211 -270v-65h359q75 0 75 -76v-54q0 -267 -239 -506
q-32 -32 -16.5 -60.5q14.5 -26.5 53.5 -26.5h107q76 -1 74 -97v-75q-15 43 -65 43h-134q-100 0 -91 129q2 29 102.5 199.5q105.5 179.5 100.5 360.5q-1 33 -32 33h-239z" />
    <glyph glyph-name="ML_PA_I.initmedi" unicode="&#xf3c5;&#xf361;" 
d="M830 719v-130h-221q0 -210.217 15 -282q11 -52 116 -177q30 -36 34 -76q2 -17 -1 -32q-34 60 -111.5 122.5q-83.5 66.5 -123.5 141.5q-39 73 -39 303v141q0 98 -69.5 157.5q-67.5 58.5 -152.5 58.5q-91 1 -157 -57.5t-65.998 -168.32l0.998 -1.18h324v-283
q0 -142 -123 -182q-34 -11 -66 -44q-24 26 -60 43q-27 13 -27 13.5l-20 7.5q-31 3 -34 -69q-4 -74 56 -74h45q76 -1 74 -97v-75q-15 43 -65 43h-72q-108 0 -86 129q21 125 22 135v76q0 1 -4 12q-4 12 -5 12q33 41 38 41q19 -1 56.5 -23t82.5 -22q134 1 134 152v75h-325v195
q0 202 215 271q28 9 61 43q32 -33 66 -44q211 -68 211 -270v0v-65h277z" />
    <glyph glyph-name="ML_PA_I.isolfina" unicode="&#xf3c5;&#xf30b;" horiz-adv-x="1090" 
d="M609 589q0 -210 15 -282q11 -52 116 -177q30 -36 34 -76q2 -17 -1 -32q-34 60 -111.5 122.5q-83.5 66.5 -123.5 141.5q-39 73 -39 303v130v11q0 98 -69.5 157.5q-67.5 58.5 -152.5 58.5q-91 1 -157 -57.5t-65.998 -168.32l0.998 -1.18h324v-283q0 -142 -123 -182
q-34 -11 -66 -44q-24 26 -60 43q-27 13 -27 13.5l-20 7.5q-31 3 -34 -69q-4 -74 56 -74h45q76 -1 74 -97v-75q-15 43 -65 43h-72q-108 0 -86 129q21 125 22 135v76q0 1 -4 12q-4 12 -5 12q33 41 38 41q19 -1 56.5 -23t82.5 -22q134 1 134 152v75h-325v195q0 202 215 271
q28 9 61 43q36 -25 66 -44q211 -134 211 -270v-65h388q40 0 85 -66q44 -65 44 -172q-1 -122 -43 -162h-112q91 49 91 162q0 108 -89 108h-308z" />
    <glyph glyph-name="ML_PA_O.initmedi" unicode="&#xf3c5;&#xf30c;" horiz-adv-x="870" 
d="M648 719q0 111 -67 168.5t-155 58.5q-39 0 -75 -43q-32 43 -75 43q-87 0 -154.5 -59t-67.5 -168h594zM378 589v-76q0 -151 134 -151t136 151v76h-270zM900 589h-198v-153q0 -142 -129 -183q-28 -9 -60 -43q-32 33 -66 44q-61 19 -94 74q-31 -52 -98 -74q-34 -11 -66 -44
q-31 32 -61 43q-8 3 -26 13q-19 10 -22 11q-28 0 -32 -72q-4 -74 56 -74h45q76 -1 74 -97v-75q-15 43 -65 43h-72q-108 0 -86 129q22 127 22 135v76q0 1 -4 12q-4 12 -5 12q33 41 38 41q19 -1 56.5 -23t82.5 -22q134 1 134 152v75h-324v195q0 202 215 271q28 9 60 43
q28 -29 66 -44q10 -4 11 -4t9 4q36 13 65 44q33 -34 61 -43q215 -68 215 -271v-65h198v-130z" />
    <glyph glyph-name="ML_PA_O.isolfina" unicode="&#xf3c5;&#xf30e;" horiz-adv-x="710" 
d="M0 589v195q0 202 215 271q28 9 60 43q28 -29 66 -44q10 -4 11 -4t9 4q36 13 65 44q33 -34 61 -43q215 -68 215 -271v-348q0 -142 -129 -183q-28 -9 -60 -43q-32 33 -66 44q-61 19 -94 74q-31 -52 -98 -74q-34 -11 -66 -44q-33 34 -61 43v0q-8 3 -26 13q-19 10 -22 11
q-28 0 -32 -72q-4 -74 56 -74h45q76 -1 74 -97v-75q-15 43 -65 43h-72q-108 0 -86 129q22 127 22 135v76q0 1 -4 12q-4 12 -5 12q33 41 38 41q19 -1 56.5 -23t82.5 -22v0q134 1 134 152v75h-324zM378 589v-76q0 -151 134 -151t136 151v76h-270zM648 719q0 111 -67 168.5
t-155 58.5q-39 0 -75 -43q-32 43 -75 43q-87 0 -154.5 -59t-67.5 -168h594z" />
    <glyph glyph-name="ML_PA_OE.init" unicode="&#xf3c5;&#xf3a5;" horiz-adv-x="1140" 
d="M648 719q0 111 -67 168.5t-155 58.5q-39 0 -75 -43q-32 43 -75 43q-87 0 -154.5 -59t-67.5 -168h594zM378 589v-76q0 -151 134 -151t136 151v76h-270zM702 589v-153q0 -142 -129 -183q-28 -9 -60 -43q-32 33 -66 44q-61 19 -94 74q-31 -52 -98 -74q-34 -11 -66 -44
q-30.711 31.6416 -61 43q-8 3 -26 13q-19 10 -22 11q-28 0 -32 -72q-4 -74 56 -74h45q76 -1 74 -97v-75q-15 43 -65 43h-72q-108 0 -86 129q22 127 22 135v76q0 1 -4 12q-4 12 -5 12q33 41 38 41q19 -1 56.5 -23t82.5 -22q134 1 134 152v75h-324v195q0 202 215 271
q28 9 60 43q28 -29 66 -44q10 -4 11 -4t9 4q36 13 65 44q33 -34 61 -43q215 -68 215 -271v-65h468v-130h-230q0 -210.217 15 -282q11 -52 116 -177q30 -36 34 -76q2 -17 -1 -32q-34 60 -111.5 122.5q-83.5 66.5 -123.5 141.5q-39 73 -39 303h-128z" />
    <glyph glyph-name="ML_PA_OE.isolfina" unicode="&#xf3c5;&#xf311;" horiz-adv-x="1110" 
d="M648 719q0 111 -67 168.5t-155 58.5q-39 0 -75 -43q-32 43 -75 43q-87 0 -154.5 -59t-67.5 -168h594zM378 589v-76q0 -151 134 -151t136 151v76h-270zM0 589v195q0 202 215 271q28 9 60 43q28 -29 66 -44q10 -4 11 -4t9 4q36 13 65 44q33 -34 61 -43q215 -68 215 -271
v-65h279q40 0 85 -66q44 -65 44 -172q-1 -122 -43 -162h-112q91 49 91 162q0 108 -91 108h-253v-153q0 -142 -129 -183q-28 -9 -60 -43q-32 33 -66 44q-61 19 -94 74q-31 -52 -98 -74q-34 -11 -66 -44q-31 32 -61 43q-8 3 -26 13q-19 10 -22 11q-28 0 -32 -72q-4 -74 56 -74
h45q76 -1 74 -97v-75q-15 43 -65 43h-72q-108 0 -86 129q22 127 22 135v76q0 1 -4 12q-4 12 -5 12q33 41 38 41q19 -1 56.5 -23t82.5 -22q134 1 134 152v75h-324z" />
    <glyph glyph-name="ML_PA_EE.initmedi" unicode="&#xf3c5;&#xf3be;" horiz-adv-x="960" 
d="M553 719h437v-130h-383q0 -155 17 -211q32 -107 89 -176q44 -54 85 -40q44 16 42 80q80 -46 21 -136q-31 -48 -97 -46q-4 -57 -52 -91q24 115 -15 192q-18 34 -69.5 89t-76.5 97q-52 87 -52 242v141q0 98 -69.5 157.5q-67.5 58.5 -152.5 58.5q-91 1 -157 -57.5
t-65.998 -168.32l0.998 -1.18h324v-283q0 -142 -123 -182q-34 -11 -66 -44q-24 26 -60 43q-27 13 -27 13.5l-20 7.5q-31 3 -34 -69q-4 -74 56 -74h45q76 -1 74 -97v-75q-15 43 -65 43h-72q-108 0 -86 129q21 125 22 135v76q0 1 -4 12q-4 12 -5 12q33 41 38 41
q19 -1 56.5 -23t82.5 -22q134 1 134 152v75h-325v195q0 202 215 271q28 9 61 43q32 -33 66 -44q211 -68 211 -270v-65z" />
    <glyph glyph-name="ML_PA_EE.isolfina" unicode="&#xf3c5;&#xf313;" horiz-adv-x="1200" 
d="M607 589q0 -155 17 -211q32 -107 89 -176q44 -54 85 -40q44 16 42 80q80 -46 21 -136q-31 -48 -97 -46q-4 -57 -52 -91q24 115 -15 192q-18 34 -69.5 89t-76.5 97q-52 87 -52 242v141q0 98 -69.5 157.5q-67.5 58.5 -152.5 58.5q-91 1 -157 -57.5t-65.998 -168.32
l0.998 -1.18h324v-283q0 -142 -123 -182q-34 -11 -66 -44q-24 26 -60 43q-27 13 -27 13.5l-20 7.5q-31 3 -34 -69q-4 -74 56 -74h45q76 -1 74 -97v-75q-15 43 -65 43h-72q-108 0 -86 129q21 125 22 135v76q0 1 -4 12q-4 12 -5 12q33 41 38 41q19 -1 56.5 -23t82.5 -22
q134 1 134 152v75h-325v195q0 202 215 271q28 9 61 43q32 -33 66 -44q211 -68 211 -270v-65h518q40 0 85 -66q44 -65 44 -172q-1 -122 -43 -162h-112q91 49 91 162q0 109 -91 108h-438z" />
    <glyph glyph-name="ML_QA_E.initmedi" unicode="&#xf31a;&#xf3a1;" horiz-adv-x="641" 
d="M205 210q-16 16 -72 47q-133 72 -133 267v238q0 241 162 293q28 9 61 43q32 -33 66 -44q155 -54 155 -292v-43h227v-130h-173v-162q0 -89 40 -130h-108q-40 40 -40 130v281q0 237 -166 238q-170 1 -170 -228v-129q0 -201 151 -227v-152z" />
    <glyph glyph-name="ML_QA_E.isolfina1" unicode="&#xf31a;&#xf3a2;" horiz-adv-x="920" 
d="M498 589v-162q0 -89 40 -130h-108q-40 40 -40 130v281q0 237 -166 238q-170 1 -170 -228v-129q0 -201 151 -227v-152q-16 16 -72 47q-133 72 -133 267v238q0 241 162 293q28 9 61 43q32 -33 66 -44q155 -54 155 -292v-43h396q75 0 75 -76v-54q0 -266 -239 -506
q-32 -32 -16.5 -60.5q14.5 -26.5 53.5 -26.5h107q76 0 74 -97v-75q-15 43 -65 43h-134q-100 0 -91 129q2 29 102.5 199.5t100.5 360.5q-1 33 -32 33h-277z" />
    <glyph glyph-name="ML_QA_I.initmedi1" unicode="&#xf3cc;&#xf3b1;" horiz-adv-x="690" 
d="M720 719v-130h-221q0 -201 25 -282q20.5206 -63.548 116 -177q30 -36 34 -76q2 -17 -1 -32q-34 60 -111.5 122.5q-75.5 60.5 -123.5 141.5q-49 100 -49 303v130q0 227 -166 227q-169 1 -169 -227v-130q0 -200 150 -226v-153q-16 17 -71 47q-133 72 -133 267v238
q0 241 162 293q28 9 61 43q32 -33 65 -44q156 -54 156 -292v-43h276z" />
    <glyph glyph-name="ML_QA_I.isolfina1" unicode="&#xf31a;&#xf30b;" horiz-adv-x="980" 
d="M499 589q0 -197 25 -282q20.5206 -63.548 116 -177q30 -36 34 -76q2 -17 -1 -32q-34 60 -111.5 122.5q-75.5 60.5 -123.5 141.5q-49 100 -49 303v130q0 227 -166 227q-169 1 -169 -227v-130q0 -200 150 -226v-153q-16 17 -71 47q-133 72 -133 267v238q0 241 162 293
q28 9 61 43q32 -33 65 -44q156 -54 156 -292v-43h407q40 0 85 -66q44 -65 44 -172q-1 -122 -43 -162h-112q91 49 91 162q0 108 -91 108h-326z" />
    <glyph glyph-name="ML_QA_OE.medi1" unicode="&#xf31a;&#xf3a5;" horiz-adv-x="780" 
d="M250 719h324q0 245 -261 248q-257 3 -258 -251v-127q1 -113 38 -182q71 -135 72 -177h-101q-1 58 -36 158q-28 79 -28 180v150q-1 141 66 244.5q69 105.5 165 112.5q50 4 83 44q26 -40 78 -44q104 -8 170 -111.5t66 -244.5h182v-130h-182v-153q0 -142 -129 -183
q-28 -9 -61 -43q-32 33 -65 44q-123 40 -123 182v283zM304 513q0 -151 134 -151t136 151v76h-270v-76z" />
    <glyph glyph-name="ML_QA_OE.fina1" unicode="&#xf31a;&#xf3a8;" horiz-adv-x="640" 
d="M628 436q0 -142 -129 -183q-28 -9 -61 -43q-32 33 -65 44q-123 40 -123 182v283h324q0 248 -261 248q-258 0 -258 -251v-127q0 -111 38 -182q71 -135 72 -177h-101q-1 58 -36 158q-28 79 -28 180v150q0 143 66 244.5q68 104.5 165 112.5q50 4 83 44q26 -40 78 -44
q104 -8 170 -111.5t66 -244.5v-283zM304 513q0 -151 134 -151q136 0 136 151v76h-270v-76z" />
    <glyph glyph-name="ML_QA_OE.init1" unicode="&#xf3cc;&#xf3a6;" horiz-adv-x="1060" 
d="M304 513q0 -151 134 -151t136 151v76h-270v-76zM628 589v-153q0 -142 -129 -183q-28 -9 -61 -43q-32 33 -65 44q-123 40 -123 182v283h324q0 248 -261 248q-257 0 -258 -251v-127q1 -113 38 -182q71 -135 72 -177h-101q-1 58 -36 158q-28 79 -28 180v150
q-1 141 63.5 244.5t167.5 112.5q50 4 83 44q26 -40 78 -44q98 -8 167.5 -111.5q68.5 -103.5 68.5 -244.5h462v-130h-230q0 -194.792 25 -282q17 -59 116 -177q30 -36 34 -76q2 -17 -1 -32q-34 60 -111.5 122.5q-91.5 72.5 -123.5 141.5q-49 105 -49 303h-122z" />
    <glyph glyph-name="ML_QA_OE.isolfina" unicode="&#xf31a;&#xf311;" horiz-adv-x="1100" 
d="M638 589v-153q0 -142 -129 -183q-28 -9 -61 -43q-32 33 -65 44q-123 40 -123 182v283h324q0 245 -266 248q-262 3 -263 -251v-127q1 -113 38 -182q71 -135 72 -177h-101q-1 58 -36 158q-28 79 -28 180v150q-1 141 66 244.5t170 112.5q50 4 83 44q26 -40 78 -44
q104 -8 172.5 -111.5t68.5 -244.5h333q40 0 85 -66q44 -65 44 -172q-1 -122 -43 -162h-112q91 49 91 162q0 108 -91 108h-307zM314 513q0 -151 134 -151t136 151v76h-270v-76z" />
    <glyph glyph-name="ML_QA_EE.initmedi" unicode="&#xf31a;&#xf3be;" horiz-adv-x="830" 
d="M205 362v-152q-15 16 -71 47q-134 73 -134 267v239q0 238 163 292q27 9 60 43q32 -33 66 -44q161 -55 161 -291v-44h410v-130h-361q0 -155 17 -211q32 -107 89 -176q44 -54 85 -40q44 16 42 80q80 -46 21 -136q-31 -48 -97 -46q-4 -57 -52 -91q24 117 -15 192
q-18 34 -69.5 89t-76.5 97q-52 87 -52 242v120q0 237 -167 237q-170 0 -170 -227v-130q0 -201 151 -227z" />
    <glyph glyph-name="ML_QA_EE.isolfina" unicode="&#xf31a;&#xf313;" horiz-adv-x="1060" 
d="M905 589h-406q0 -155 17 -211q32 -107 89 -176q44 -54 85 -40q44 16 42 80q80 -46 21 -136q-31 -48 -97 -46q-4 -57 -52 -91q24 117 -15 192q-18 34 -69.5 89t-76.5 97q-52 87 -52 242v120q0 237 -167 237q-170 0 -170 -227v-130q0 -201 151 -227v-152q-15 16 -71 47
q-134 73 -134 267v239q0 238 163 292q27 9 60 43q32 -33 66 -44q161 -55 161 -291v-44h481q40 0 85 -66q44 -65 44 -172q-1 -122 -43 -162h-112q91 49 91 162q0 108 -91 108z" />
    <glyph glyph-name="ML_FA_A.initmedi" unicode="&#xf3e4;&#xf305;" horiz-adv-x="760" 
d="M119 131q33 0 49.5 41t-10.5 89q29 -5 41 -30q26 -52 29 -102q6 -129 -90 -129h-73q-51 0 -65 -42v75q-2 97 74 98h45zM54 514v75h270v-75q0 -151 -134.5 -151t-135.5 151zM500 730v-303q0 -89 40 -130h108q-40 40 -40 130v162h182v130h-237v65q0 202 -211 270
q-34 11 -66 44q-33 -34 -61 -43q-215 -69 -215 -271v-348q0 -142 129 -182q28 -9 61 -44q32 33 65 44q123 40 123 182v283h-324q0 111 66 169.5t157 57.5q86 0 153.5 -58.5q69.5 -59.5 69.5 -157.5z" />
    <glyph glyph-name="ML_FA_A.isolfina" unicode="&#xf3e4;&#xf308;" horiz-adv-x="990" 
d="M119 131q33 0 49.5 41t-10.5 89q29 -5 41 -30q26 -52 29 -102q6 -129 -90 -129h-73q-51 0 -65 -42v75q-2 97 74 98h45zM608 589v-162q0 -90 40 -130h-108q-40 41 -40 130v303q0 98 -69.5 157.5q-67.5 58.5 -153.5 58.5q-91 1 -157 -57.5t-66 -169.5h324v-283
q0 -142 -123 -182q-33 -11 -65 -44q-33 35 -61 44q-129 40 -129 182v348q0 202 215 271q28 9 61 43q32 -33 66 -44q211 -68 211 -270v-65h359q75 0 75 -76v-54q0 -267 -239 -506q-32 -32 -16.5 -60.5q14.5 -26.5 53.5 -26.5h107q76 -1 74 -97v-75q-15 43 -65 43h-134
q-100 0 -91 129q2 29 102.5 199.5t100.5 360.5q-1 33 -32 33h-239zM54 514q1 -151 135.5 -151t134.5 151v75h-270v-75z" />
    <glyph glyph-name="ML_FA_I.initmedi" unicode="&#xf3e4;&#xf361;" horiz-adv-x="820" 
d="M850 719v-130h-241q0 -204.58 25 -282q21 -64 116 -177q30 -36 34 -76q2 -17 -1 -32q-34 60 -111.5 122.5q-80.3685 64.632 -123.5 141.5q-49 87 -49 303v141q0 99 -68 157.5t-154 58.5q-91 1 -157 -57.5t-66 -169.5h324v-283q0 -142 -123 -182q-33 -11 -65 -44
q-33 35 -61 44q-129 41 -129 182v348q0 202 215 271q28 9 61 43q32 -33 66 -44q211 -68 211 -270v-65h297zM54 514q0 -151 135 -151t135 151v75h-270v-75zM119 131q33 0 49.5 41t-10.5 89q29 -5 41 -30q26 -52 29 -102q6 -129 -90 -129h-73q-51 0 -65 -42v75q-2 97 74 98h45
z" />
    <glyph glyph-name="ML_FA_I.isolfina" unicode="&#xf3e4;&#xf30b;" horiz-adv-x="1080" 
d="M609 589q0 -198 35 -282q31 -76 116 -177q30 -36 34 -76q2 -17 -1 -32q-34 60 -111.5 122.5q-71.9903 57.6876 -123.5 141.5q-59 96 -59 303v141q0 99 -68 157.5t-154 58.5q-91 1 -157 -57.5t-66 -169.5h324v-283q0 -142 -123 -182q-33 -11 -65 -44q-33 35 -61 44
q-129 41 -129 182v348q0 202 215 271q28 9 61 43q32 -33 66 -44q211 -68 211 -270v-65h388q40 0 85 -66q44 -65 44 -172q-1 -122 -43 -162h-112q91 49 91 162q0 108 -91 108h-306zM54 514q0 -151 135 -151t135 151v75h-270v-75zM119 131q33 0 49.5 41t-10.5 89q29 -5 41 -30
q26 -52 29 -102q6 -129 -90 -129h-73q-51 0 -65 -42v75q-2 97 74 98h45z" />
    <glyph glyph-name="ML_FA_O.initmedi" unicode="&#xf3e4;&#xf30c;" horiz-adv-x="870" 
d="M119 131q33 0 49.5 41t-10.5 89q29 -5 41 -30q26 -52 29 -102q6 -129 -90 -129h-73q-51 0 -65 -42v75q-2 97 74 98h45zM0 436v348q0 202 215 271q28 9 60 43q28 -29 66 -44q10 -4 11 -4t9 4q36 13 65 44q33 -34 61 -43q215 -68 215 -271v-65h198v-130h-198v-153
q0 -142 -129 -183q-28 -9 -60 -43q-32 33 -66 44q-63 20 -96 77q-33 -56 -96 -77q-34 -11 -66 -44q-33 34 -61 43q-128 41 -128 183zM54 513q0 -151 135 -151t135 151v76h-270v-76zM54 719h594q0 111 -67 168.5t-155 58.5q-39 0 -75 -43q-32 43 -75 43q-87 0 -154.5 -59
t-67.5 -168zM378 513q0 -151 134 -151t136 151v76h-270v-76z" />
    <glyph glyph-name="ML_FA_O.isolfina" unicode="&#xf3e4;&#xf30e;" horiz-adv-x="710" 
d="M119 131q33 0 49.5 41t-10.5 89q29 -5 41 -30q26 -52 29 -102q6 -129 -90 -129h-73q-51 0 -65 -42v75q-2 97 74 98h45zM702 436q0 -142 -129 -183q-28 -9 -60 -43q-32 33 -66 44q-63 20 -96 77q-33 -56 -96 -77q-34 -11 -66 -44q-33 34 -61 43q-128 41 -128 183v348
q0 202 215 271q28 9 60 43q28 -29 66 -44q10 -4 11 -4t9 4q36 13 65 44q33 -34 61 -43q215 -68 215 -271v-348zM54 513q0 -151 135 -151t135 151v76h-270v-76zM54 719h594q0 111 -67 168.5t-155 58.5q-39 0 -75 -43q-32 43 -75 43q-87 0 -154.5 -59t-67.5 -168zM378 513
q0 -151 134 -151t136 151v76h-270v-76z" />
    <glyph glyph-name="ML_FA_UE.initmedi" unicode="&#xf3e5;&#xf3a6;" horiz-adv-x="1150" 
d="M119 131q33 0 49.5 41t-10.5 89q29 -5 41 -30q26 -52 29 -102q6 -129 -90 -129h-73q-51 0 -65 -42v75q-2 97 74 98h45zM702 589v-153q0 -142 -129 -183q-28 -9 -60 -43q-32 33 -66 44q-63 20 -96 77q-33 -56 -96 -77q-34 -11 -66 -44q-33 34 -61 43q-128 41 -128 183v348
q0 202 215 271q28 9 60 43q28 -29 66 -44q10 -4 11 -4t9 4q36 13 65 44q33 -34 61 -43q215 -68 215 -271v-65h478v-130h-240q0 -205 25 -282q21 -64 116 -177q30 -36 34 -76q2 -17 -1 -32q-30 53 -113.032 121.028q-82.9677 67.9725 -121.968 142.972q-49 95 -49 303h-128z
M378 513q0 -151 134 -151t136 151v76h-270v-76zM54 719h594q0 111 -67 168.5t-155 58.5q-39 0 -75 -43q-32 43 -75 43q-87 0 -154.5 -59t-67.5 -168zM54 513q0 -151 135 -151t135 151v76h-270v-76z" />
    <glyph glyph-name="ML_FA_UE.isolfina" unicode="&#xf3e4;&#xf3a8;" horiz-adv-x="1160" 
d="M119 131q33 0 49.5 41t-10.5 89q29 -5 41 -30q26 -52 29 -102q6 -129 -90 -129h-73q-51 0 -65 -42v75q-2 97 74 98h45zM702 589v-153q0 -142 -129 -183q-28 -9 -60 -43q-32 33 -66 44q-63 20 -96 77q-33 -56 -96 -77q-34 -11 -66 -44q-33 34 -61 43q-128 41 -128 183v348
q0 202 215 271q28 9 60 43q28 -29 66 -44q10 -4 11 -4t9 4q36 13 65 44q33 -34 61 -43q215 -68 215 -271v-65h329q40 0 85 -66q44 -65 44 -172q-1 -122 -43 -162h-112q91 49 91 162q0 108 -91 108h-303zM54 513q0 -151 135 -151t135 151v76h-270v-76zM54 719h594
q0 111 -67 168.5t-155 58.5q-39 0 -75 -43q-32 43 -75 43q-87 0 -154.5 -59t-67.5 -168zM378 513q0 -151 134 -151t136 151v76h-270v-76z" />
    <glyph glyph-name="ML_FA_EE.initmedi" unicode="&#xf3e4;&#xf3be;" horiz-adv-x="960" 
d="M119 131q33 0 49.5 41t-10.5 89q29 -5 41 -30q26 -52 29 -102q6 -129 -90 -129h-73q-51 0 -65 -42v75q-2 97 74 98h45zM990 719v-130h-383q0 -155 17 -211q32 -107 89 -176q44 -54 85 -40q44 16 42 80q80 -46 21 -136q-31 -48 -97 -46q-4 -57 -52 -91q24 115 -15 192
q-18 34 -69.5 89t-76.5 97q-52 87 -52 242v141q0 99 -68 157.5t-154 58.5q-91 1 -157 -57.5t-66 -169.5h324v-283q0 -142 -123 -182q-33 -11 -65 -44q-33 35 -61 44q-129 41 -129 182v348q0 203 215 271q28 9 61 43q32 -33 66 -44q211 -68 211 -270v-65h437zM54 514
q0 -151 135 -151t135 151v75h-270v-75z" />
    <glyph glyph-name="ML_FA_EE.isolfina" unicode="&#xf3e4;&#xf313;" horiz-adv-x="1200" 
d="M119 131q33 0 49.5 41t-10.5 89q29 -5 41 -30q26 -52 29 -102q6 -129 -90 -129h-73q-51 0 -65 -42v75q-2 97 74 98h45zM499 589v141q0 99 -68 157.5t-154 58.5q-91 1 -157 -57.5t-66 -169.5h324v-283q0 -142 -123 -182q-33 -11 -65 -44q-33 35 -61 44q-129 41 -129 182
v348q0 203 215 271q28 9 61 43q32 -33 66 -44q211 -68 211 -270v-65h518q40 0 85 -66q44 -65 44 -172q-1 -122 -43 -162h-112q91 49 91 162q0 109 -91 108h-438q0 -155 17 -211q32 -107 89 -176q44 -54 85 -40q44 16 42 80q80 -46 21 -136q-31 -48 -97 -46q-4 -57 -52 -91
q24 115 -15 192q-18 34 -69.5 89t-76.5 97q-52 87 -52 242zM54 514q0 -151 135 -151t135 151v75h-270v-75z" />
    <glyph glyph-name="ML_KA_A.initmedi" unicode="&#xf3e6;&#xf305;" horiz-adv-x="641" 
d="M74 426l-50 -48q-31 -59 -30 -189h-107q-4 139 120 251zM205 210q-16 16 -72 47q-133 72 -133 267v238q0 241 162 293q28 9 61 43q32 -33 66 -44q155 -54 155 -292v-43h227v-130h-173v-162q0 -89 40 -130h-108q-40 40 -40 130v281q0 237 -166 238q-170 1 -170 -228v-129
q0 -201 151 -227v-152z" />
    <glyph glyph-name="ML_KA_A.isolfina" unicode="&#xf3e6;&#xf308;" horiz-adv-x="920" 
d="M74 426l-50 -48q-31 -59 -30 -189h-107q-4 139 120 251zM498 589v-162q0 -89 40 -130h-108q-40 40 -40 130v281q0 237 -166 238q-170 1 -170 -228v-129q0 -201 151 -227v-152q-16 16 -72 47q-133 72 -133 267v238q0 241 162 293q28 9 61 43q32 -33 66 -44
q155 -54 155 -292v-43h396q75 0 75 -76v-54q0 -266 -239 -506q-32 -32 -16.5 -60.5q14.5 -26.5 53.5 -26.5h107q76 0 74 -97v-75q-15 43 -65 43h-134q-100 0 -91 129q2 29 102.5 199.5t100.5 360.5q-1 33 -32 33h-277z" />
    <glyph glyph-name="ML_KA_I.initmedi" unicode="&#xf3e6;&#xf361;" horiz-adv-x="700" 
d="M54 589q0 -200 150 -226v-153q-16 17 -71 47q-76 41 -108.27 121.701l-0.7297 -0.701q-31 -59 -30 -189h-107q-4 139 120 251l0.19209 -0.04q-7.19209 39.04 -7.19209 84.04v238q0 241 162 293q28 9 61 43q32 -33 65 -44q156 -54 156 -292v-43h286v-130h-233
q0 -194.418 35 -292q28 -78 111 -175q18 -21 31 -68q4 -15 -1 -34q-23.2651 42.5419 -111 124.5q-69 64.5 -114 141.5q-59 101 -59 303v130q0 227 -166 227q-169 1 -169 -227v-130z" />
    <glyph glyph-name="ML_KA_I.isolfina" unicode="&#xf3e6;&#xf30b;" horiz-adv-x="980" 
d="M497 589q0 -192 38 -287q2 -5 118 -180q20 -30 31 -68q4 -15 -1 -34q-35 64 -111 124.5t-124 141.5q-59 101 -59 303v130q0 227 -166 227q-169 1 -169 -227v-130q0 -200 150 -226v-153q-16 17 -71 47q-75.6498 40.953 -108.27 121.701l-0.7297 -0.701q-31 -59 -30 -189
h-107q-4 139 120 251l0.19209 -0.04q-7.19209 38.694 -7.19209 84.04v238q0 241 162 293q28 9 61 43q32 -33 65 -44q156 -54 156 -292v-43h407q40 0 85 -66q44 -65 44 -172q-1 -122 -43 -162h-112q91 49 91 162q0 108 -91 108h-328z" />
    <glyph glyph-name="ML_KA_O.initmedi" unicode="&#xf3e6;&#xf30c;" horiz-adv-x="780" 
d="M304 513q0 -151 134.5 -151q135.5 0 135.5 151v76h-270v-76zM250 719h324q0 245 -261 248q-257 3 -258 -251v-127q1 -113 38 -182q71 -135 72 -177h-101q-0.9768 56.654 -34.394 153.382l-5.606 -5.382q-31 -59 -30 -189h-107q-4 139 120 251l6.4295 -1.343
q-13.4295 59.395 -13.4295 129.343v150q-1 141 66 244.5q69 105.5 165 112.5q50 4 83 44q26 -40 78 -44q104 -8 170 -111.5t66 -244.5h182v-130h-182v-153q0 -142 -129 -183q-28 -9 -61 -43q-32 33 -65 44q-123 40 -123 182v283z" />
    <glyph glyph-name="ML_KA_O.isolfina" unicode="&#xf3e6;&#xf30e;" horiz-adv-x="640" 
d="M304 513q0 -151 134 -151q136 0 136 151v76h-270v-76zM628 436q0 -142 -129 -183q-28 -9 -61 -43q-32 33 -65 44q-123 40 -123 182v283h324q0 248 -261 248q-258 0 -258 -251v-127q0 -111 38 -182q71 -135 72 -177h-101q-0.9768 56.654 -34.394 153.382l-5.606 -5.382
q-31 -59 -30 -189h-107q-4 139 120 251l6.4295 -1.343q-13.4295 59.395 -13.4295 129.343v150q0 143 66 244.5q68 104.5 165 112.5q50 4 83 44q26 -40 78 -44q104 -8 170 -111.5t66 -244.5v-283z" />
    <glyph glyph-name="ML_KA_UE.initmedi" unicode="&#xf3e6;&#xf3a5;" horiz-adv-x="1100" 
d="M1130 719v-130h-240q0 -187 26.5 -272t127.5 -195q32.6533 -36.5881 31 -68q-1 -16 -1 -32q-32 59 -111.5 122.5q-75.5 60.5 -123.5 141.5q-59 100 -59 303h-152v-153q0 -142 -129 -183q-28 -9 -61 -43q-32 33 -65 44q-123 40 -123 182v283h324q0 248 -261 248
q-257 0 -258 -251v-127q1 -113 38 -182q71 -135 72 -177h-101q-1 57 -34.394 153.382l-5.606 -5.382q-31 -59 -30 -189h-107q-4 139 120 251l6.4295 -1.343q-13.4295 59.343 -13.4295 129.343v150q-1 141 63.5 244.5t167.5 112.5q50 4 83 44q26 -40 78 -44
q98 -8 167.5 -111.5q68.5 -103.5 68.5 -244.5h502zM304 513q0 -151 134 -151t136 151v76h-270v-76z" />
    <glyph glyph-name="ML_KA_UE.isolfina" unicode="&#xf3e6;&#xf311;" horiz-adv-x="1100" 
d="M314 513q0 -151 134 -151t136 151v76h-270v-76zM638 589v-153q0 -142 -129 -183q-28 -9 -61 -43q-32 33 -65 44q-123 40 -123 182v283h324q0 245 -266 248q-262 3 -263 -251v-127q1 -113 38 -182q71 -135 72 -177h-101q-0.9768 56.654 -34.394 153.382l-5.606 -5.382
q-31 -59 -30 -189h-107q-4 139 120 251l6.4295 -1.343q-13.4295 59.395 -13.4295 129.343v150q-1 141 66 244.5t170 112.5q50 4 83 44q26 -40 78 -44q104 -8 172.5 -111.5t68.5 -244.5h333q40 0 85 -66q44 -65 44 -172q-1 -122 -43 -162h-112q91 49 91 162q0 108 -91 108
h-307z" />
    <glyph glyph-name="ML_KA_EE.initmedi" unicode="&#xf3e6;&#xf3be;" horiz-adv-x="830" 
d="M205 362v-152q-15 16 -71 47q-76.1126 41.464 -108.993 121.967l-1.0071 -0.967q-31 -59 -30 -189h-107q-4 139 120 251l0.31839 -0.067q-7.31839 38.73 -7.31839 84.067v239q0 238 163 292q27 9 60 43q32 -33 66 -44q161 -55 161 -291v-44h410v-130h-361q0 -155 17 -211
q32 -107 89 -176q44 -54 85 -40q44 16 42 80q80 -46 21 -136q-31 -48 -97 -46q-4 -57 -52 -91q24 117 -15 192q-18 34 -69.5 89t-76.5 97q-52 87 -52 242v120q0 237 -167 237q-170 0 -170 -227v-130q0 -201 151 -227z" />
    <glyph glyph-name="ML_KA_EE.isolfina" unicode="&#xf3e6;&#xf313;" horiz-adv-x="1060" 
d="M905 589h-406q0 -155 17 -211q32 -107 89 -176q44 -54 85 -40q44 16 42 80q80 -46 21 -136q-31 -48 -97 -46q-4 -57 -52 -91q24 117 -15 192q-18 34 -69.5 89t-76.5 97q-52 87 -52 242v120q0 237 -167 237q-170 0 -170 -227v-130q0 -201 151 -227v-152q-15 16 -71 47
q-76.1126 41.464 -108.993 121.967l-1.0071 -0.967q-31 -59 -30 -189h-107q-4 139 120 251l0.31839 -0.067q-7.31839 38.73 -7.31839 84.067v239q0 238 163 292q27 9 60 43q32 -33 66 -44q161 -55 161 -291v-44h481q40 0 85 -66q44 -65 44 -172q-1 -122 -43 -162h-112
q91 49 91 162q0 108 -91 108z" />
    <glyph glyph-name="ML_KHA_A.initmedi" unicode="&#xf3e8;&#xf305;" horiz-adv-x="641" 
d="M205 210q-16 16 -72 47q-133 72 -133 267v238q0 241 162 293q28 9 61 43q32 -33 66 -44q155 -54 155 -292v-43h227v-130h-173v-162q0 -89 40 -130h-108q-40 40 -40 130v281q0 237 -166 238q-169.628 0.998 -169.999 -227h170.999v-130h-171q0 -201 151 -227v-152z" />
    <glyph glyph-name="ML_KHA_A.isolfina" unicode="&#xf3e8;&#xf308;" horiz-adv-x="920" 
d="M498 589v-162q0 -89 40 -130h-108q-40 40 -40 130v281q0 237 -166 238q-170 1 -169.999 -227h170.999v-130h-171q0 -201 151 -227v-152q-16 16 -72 47q-133 72 -133 267v238q0 241 162 293q28 9 61 43q32 -33 66 -44q155 -54 155 -292v-43h396q75 0 75 -76v-54
q0 -266 -239 -506q-32 -32 -16.5 -60.5q14.5 -26.5 53.5 -26.5h107q76 0 74 -97v-75q-15 43 -65 43h-134q-102.382 0 -91 129q1.40497 14.5181 104 199.5q99 178.5 99 360.5q-1 33 -32 33h-277z" />
    <glyph glyph-name="ML_KHA_I.initmedi" unicode="&#xf3e8;&#xf361;" horiz-adv-x="700" 
d="M54 719h171v-130h-171q0 -200 150 -226v-153q-16 17 -71 47q-133 72 -133 267v238q0 241 162 293q28 9 61 43q32 -33 65 -44q156 -54 156 -292v-43h286v-130h-233q0 -202 28 -287q33.736 -102.296 118 -180q17.1302 -15.9882 31 -68q4 -15 -1 -34q-35 64 -111 124.5
q-84.3888 67.1779 -124 141.5q-49 92 -49 303v130q0 227 -166 227q-169 1 -169 -227z" />
    <glyph glyph-name="ML_KHA_I.isolfina" unicode="&#xf3e8;&#xf30b;" horiz-adv-x="980" 
d="M497 589q0 -192 38 -287q2 -5 118 -180q20 -30 31 -68q4 -15 -1 -34q-35 64 -111 124.5t-124 141.5q-59 101 -59 303v130q0 227 -166 227q-169 1 -169 -227h171v-130h-171q0 -200 150 -226v-153q-16 17 -71 47q-133 72 -133 267v238q0 241 162 293q28 9 61 43
q32 -33 65 -44q156 -54 156 -292v-43h407q40 0 85 -66q44 -65 44 -172q-1 -122 -43 -162h-112q91 49 91 162q0 108 -91 108h-328z" />
    <glyph glyph-name="ML_KHA_O.initmedi" unicode="&#xf3e8;&#xf30c;" horiz-adv-x="780" 
d="M304 513q0 -151 134 -151t136 151v76h-270v-76zM250 719h324q0 245 -261 248q-255.478 2.982 -257.979 -248h129.979v-130h-130q1 -113 38 -182q71 -135 72 -177h-101q-1 58 -36 158q-28 79 -28 180v150q-1 141 66 244.5q69 105.5 165 112.5q50 4 83 44q26 -40 78 -44
q104 -8 170 -111.5t66 -244.5h182v-130h-182v-153q0 -142 -129 -183q-28 -9 -61 -43q-32 33 -65 44q-123 40 -123 182v283z" />
    <glyph glyph-name="ML_KHA_O.isolfina" unicode="&#xf3e8;&#xf30e;" horiz-adv-x="640" 
d="M304 513q0 -151 134 -151q136 0 136 151v76h-270v-76zM628 436q0 -142 -129 -183q-28 -9 -61 -43q-32 33 -65 44q-123 40 -123 182v283h324q0 248 -261 248q-256.454 0 -257.991 -248h129.991v-130h-130q0 -111 38 -182q71 -135 72 -177h-101q-1 58 -36 158
q-28 79 -28 180v150q0 143 66 244.5q68 104.5 165 112.5q50 4 83 44q26 -40 78 -44q104 -8 170 -111.5t66 -244.5v-283z" />
    <glyph glyph-name="ML_KHA_UE.initmedi" unicode="&#xf3e8;&#xf3a5;" horiz-adv-x="1060" 
d="M628 589v-153q0 -142 -129 -183q-28 -9 -61 -43q-32 33 -65 44q-123 40 -123 182v283h324q0 248 -261 248q-255 0 -257.979 -248h139.979v-130h-140q1 -113 38 -182q71 -135 72 -177h-101q-1 58 -36 158q-28 79 -28 180v150q-1 141 63.5 244.5t167.5 112.5q50 4 83 44
q26 -40 78 -44q98 -8 167.5 -111.5q68.5 -103.5 68.5 -244.5h462v-130h-230q0 -199.868 25 -282q19 -61 116 -177q30 -36 34 -76q2 -17 -1 -32q-37.3813 65.967 -111.5 122.5q-87.5 66.5 -123.5 141.5q-49 99 -49 303h-122zM304 513q0 -151 134 -151t136 151v76h-270v-76z
" />
    <glyph glyph-name="ML_KHA_UE.isolfina" unicode="&#xf3e8;&#xf311;" horiz-adv-x="1100" 
d="M314 513q0 -151 134 -151t136 151v76h-270v-76zM638 589v-153q0 -142 -129 -183q-28 -9 -61 -43q-32 33 -65 44q-123 40 -123 182v283h324q0 245 -266 248q-260.448 2.982 -262.979 -248h139.979v-130h-140q1 -113 38 -182q71 -135 72 -177h-101q-1 58 -36 158
q-28 79 -28 180v150q-1 141 66 244.5t170 112.5q50 4 83 44q26 -40 78 -44q104 -8 172.5 -111.5t68.5 -244.5h333q40 0 85 -66q44 -65 44 -172q-1 -122 -43 -162h-112q91 49 91 162q0 108 -91 108h-307z" />
    <glyph glyph-name="ML_KHA_EE.initmedi" unicode="&#xf3e8;&#xf3be;" horiz-adv-x="830" 
d="M205 362v-152q-15 16 -71 47q-134 73 -134 267v239q0 238 163 292q27 9 60 43q32 -33 66 -44q161 -55 161 -291v-44h410v-130h-361q0 -155 17 -211q32 -107 89 -176q44 -54 85 -40q44 16 42 80q80 -46 21 -136q-31 -48 -97 -46q-4 -57 -52 -91q24 117 -15 192
q-18 34 -69.5 89t-76.5 97q-52 87 -52 242v120q0 237 -167 237q-170 0 -170 -227h171v-130h-171q0 -201 151 -227z" />
    <glyph glyph-name="ML_KHA_EE.isolfina" unicode="&#xf3e8;&#xf313;" horiz-adv-x="1060" 
d="M905 589h-406q0 -155 17 -211q32 -107 89 -176q44 -54 85 -40q44 16 42 80q80 -46 21 -136q-31 -48 -97 -46q-4 -57 -52 -91q24 117 -15 192q-18 34 -69.5 89t-76.5 97q-52 87 -52 242v120q0 237 -167 237q-170 0 -170 -227h171v-130h-171q0 -201 151 -227v-152
q-15 16 -71 47q-134 73 -134 267v239q0 238 163 292q27 9 60 43q32 -33 66 -44q161 -55 161 -291v-44h481q40 0 85 -66q44 -65 44 -172q-1 -122 -43 -162h-112q91 49 91 162q0 108 -91 108z" />
    <glyph glyph-name="ML_U_U" unicode="&#xf3b2;&#xf30f;" horiz-adv-x="1110" 
d="M53 513q0 -151 136 -151q135 0 135 151v76h-271v-76zM574 514q1 -151 135.5 -151t134.5 151v75h-270v-75zM520 719v65q0 203 215 271q28 9 61 43q32 -33 66 -44q211 -68 211 -270v-195h-54v141q0 99 -68 157.5t-154 58.5q-91 1 -157 -57.5t-66 -169.5h324v-283
q0 -142 -123 -182q-33 -11 -65 -44q-33 35 -61 44q-129 41 -129 182v153h-142v-153q0 -141 -124 -182q-33 -11 -65 -44q-33 34 -61 43q-128 41 -128 183v283h520z" />
    <glyph glyph-name="uniF300" unicode="&#x1800;&#x180b;" horiz-adv-x="1020" 
d="M605 944q126 0 168 -137q5 -18 27 -40q-28 -28 -28 -49q0 -2 4 -14t24 -33q-24 -24 -27 -39q-15 -78 -109 -152l-57 11q96 75 96 180q0 26 -27 47q27 21 27 49q0 142 -113 142zM400 946h29q126 0 168 -136q5 -18 27 -40q-28 -28 -28 -49q0 -2 4 -14.5t24 -32.5
q-24 -24 -27 -40q-19 -98 -166 -192q-111 -70 -111 -166q0 -22 32 -106q-68 -14 -108 71q-8 17 -23 31q18 15 24 30q15 46 51 81q22 21 33.5 32t49 38.5t52.5 40.5q96 75 96 180q0 26 -27 47q27 21 27 49q0 142 -113 142t-113 -142q0 -120 111 -123l-12 -31q-19 -13 -33 -13
q-101 2 -136 126q-5 21 -28 41q22 22 28 40q43 136 169 136z" />
    <glyph glyph-name="uniF303" unicode="&#x1800;&#x180d;" horiz-adv-x="1000" 
d="M400 496h29q126 0 168 -136q5 -18 27 -40q-28 -28 -28 -49q0 -2 4 -14.5t24 -32.5q-24 -24 -27 -40q-19 -98 -166 -192q-111 -70 -111 -166q0 -22 32 -106q-68 -14 -108 71q-8 17 -23 31q18 15 24 30q15 46 51 81q22 21 33.5 32t49 38.5t52.5 40.5q96 75 96 180
q0 26 -27 47q27 21 27 49q0 142 -113 142t-113 -142q0 -120 111 -123l-12 -31q-19 -13 -33 -13q-101 2 -136 126q-5 21 -28 41q22 22 28 40q43 136 169 136zM431 464q96 75 96 180q0 26 -27 47q27 21 27 49q0 142 -113 142t-113 -142q0 -120 111 -123l-12 -31
q-19 -13 -33 -13q-101 2 -136 126q-5 21 -28 41q22 22 28 40q43 137 169 136h29q131 0 168 -136q5 -18 27 -40q-28 -28 -28 -49q0 -2 4 -14.5t24 -32.5q-24 -24 -27 -40q-15 -78 -109 -152zM431 882q96 75 96 180q0 26 -27 47q27 21 27 49q0 142 -113 142t-113 -142
q0 -120 111 -122l-12 -32q-19 -13 -33 -12q-101 2 -136 125q-5 21 -28 41q22 22 28 40q43 137 169 137h29q131 0 168 -137q5 -18 27 -40q-28 -28 -28 -49q0 -2 4 -14t24 -33q-24 -24 -27 -39q-15 -78 -109 -152zM638.046 491.561q64.9541 66.4395 64.9541 152.439
q0 26 -27 47q31 24 27 49q-19 141 -83 141l21.4355 32.0693q61.5645 64.9307 61.5645 148.931q0 26 -27 47q31 24 27 49q-20 142 -93 142l-5 35q131 0 168 -137q5 -18 27 -40q-28 -28 -28 -49q0 -2 4 -14t24 -33q-24 -24 -27 -39q-13 -65 -80.2705 -127.6
q57.2705 -32.4004 80.2705 -115.4q5 -18 27 -40q-28 -28 -28 -49q0 -2 4 -14.5t24 -32.5q-24 -24 -27 -40q-13 -66 -82.6025 -129.732q58.6025 -32.2676 82.6025 -117.268q5 -18 27 -40q-28 -28 -28 -49q0 -2 4 -14t24 -33q-24 -24 -27 -39q-15 -78 -109 -152l-57 11
q96 75 96 180q0 26 -27 47q31 24 27 49q-19 142 -87 142z" />
    <glyph glyph-name=".notdef" horiz-adv-x="1264" 
d="M1200 83h-1134v1457h1134v-1457zM1139 130v1362h-1010v-1362h1010zM1099 1102h-883v199h105v-162h273v141h104v-141h401v-37zM1097 722q0 -124 -300 -127l-9 38q203 6 203 88q0 73 -148 73q-93 0 -136 -48l-82 -91q-63 -48 -197 -48q-81 0 -147 18q-96 28 -96 86
q0 108 263 111l8 -36q-168 -8 -168 -73q0 -69 132 -69q80 0 124 48l58.5 67.5t20.5 23.5q67 48 211 49q88 0 157 -20q106 -30 106 -90zM1082 327h-880v39h880v-39z" />
    <glyph glyph-name="space" unicode=" " horiz-adv-x="480" 
 />
    <glyph glyph-name="cedilla" unicode="&#xb8;" horiz-adv-x="400" 
 />
    <glyph glyph-name="M_birga" unicode="&#x1800;" horiz-adv-x="1180" 
d="M976 663v-29q0 -122 -137 -168q-18 -6 -39 -28q-28 29 -49 29q-3 0 -15 -4t-33 -25q-25 25 -39 28q-101 19 -193 165q-68 108 -166 112q-22 1 -105 -32q-14 67 70 107q16 8 31 24q16 -17 30 -24q47 -15 82 -51q21 -21 31.5 -33.5t38 -49.5t40.5 -52q76 -96 180 -97
q26 0 48 28q21 -28 49 -28q141 0 141.5 113t-141.5 114q-120 1 -123 -111l-32 11q-12 19 -12 33q3 101 225 137q-29 14 -58 27q21 -22 39 -27q137 -44 137 -169z" />
    <glyph glyph-name="M_ellipsis" unicode="&#x1801;" horiz-adv-x="1965" 
d="M1573 766q104 -102 192 -102l-123 -123q-90 1 -192 103zM1153 766q104 -102 192 -102l-123 -123q-90 1 -192 103zM743 766q104 -102 192 -102l-123 -123q-90 1 -192 103zM323 766q104 -102 192 -102l-123 -123q-90 1 -192 103z" />
    <glyph glyph-name="M_comma" unicode="&#x1802;" horiz-adv-x="615" 
d="M258.4 746.8q83.1992 -81.5996 153.6 -81.5996l-98.4004 -98.4004q-72 0.799805 -153.6 82.4004z" />
    <glyph glyph-name="M_period" unicode="&#x1803;" horiz-adv-x="890" 
d="M636.4 738.8q83.1992 -81.5996 153.6 -81.5996l-98.4004 -98.4004q-72 0.799805 -153.6 82.4004zM298.4 746.8q83.1992 -81.5996 153.6 -81.5996l-98.4004 -98.4004q-72 0.799805 -153.6 82.4004z" />
    <glyph glyph-name="M_colon" unicode="&#x1804;" horiz-adv-x="475" 
d="M375 487q-102 -104 -102 -192l-123 123q1 90 103 192zM375 907q-102 -104 -102 -192l-123 123q1 90 103 192z" />
    <glyph glyph-name="M_four_dots" unicode="&#x1805;" horiz-adv-x="1585" 
d="M813 542q104 -102 192 -102l-123 -123q-90 1 -192 103zM767 1005q104 -102 192 -102l-123 -123q-90 1 -192 103zM1041 766q104 -102 192 -102l-123 -123q-90 1 -192 103zM543 766q104 -102 192 -102l-123 -123q-90 1 -192 103z" />
    <glyph glyph-name="MT_soft_hyphen" unicode="&#x1806;" horiz-adv-x="866" 
d="M716 625h-566v63h566v-63z" />
    <glyph glyph-name="MS_syllable_boundary_marker" unicode="&#x1807;" horiz-adv-x="459" 
d="M457 625h-192v-208h-71v208h-194v63h459z" />
    <glyph glyph-name="MM_comma" unicode="&#x1808;" horiz-adv-x="963" 
d="M314 861h96l272 -319v-16l-272 -320h-96l254 327z" />
    <glyph glyph-name="MM_period" unicode="&#x1809;" horiz-adv-x="1284" 
d="M314 861h96l272 -319v-16l-272 -320h-96l254 327zM604 861h96l272 -319v-16l-272 -320h-96l254 327z" />
    <glyph glyph-name="M_nirugu" unicode="&#x180a;" horiz-adv-x="231" 
d="M261 719v-130h-261v130h261z" />
    <glyph glyph-name="MFVS_one" unicode="&#x180b;" horiz-adv-x="1625" 
d="M1561 1368h-48v94h-92v48h140v-142zM1329 1462h-188v48h188v-48zM1561 1086h-48v189h48v-189zM1048 1462h-188v48h188v-48zM1561 806h-48v187h48v-187zM768 1462h-188v48h188v-48zM1561 525h-48v188h48v-188zM1440 1008h-449q54 -54 85 -140h-68q-60 122 -145 166v44h577
v-70zM487 1462h-189v48h189v-48zM1561 245h-48v187h48v-187zM1452 584q0 -154 -92 -214q-44 -27 -104 -30l-6 71q86 12 116 81q18 42 17 89q0 91 -48 126q-22 18 -49 17q-57 0 -81 -68q-6 -12 -13.5 -39.5t-16.5 -67.5q-8 -36 -16.5 -63t-17.5 -44q-42 -81 -126 -82
q-99 0 -138 99q-21 42 -20 105q0 135 82 186q42 28 91 30l4 -73q-109 -11 -110 -140q0 -133 87 -133q44 0 67 50q8 19 25 88q11 45 19.5 77.5t16.5 48.5q45 97 139 98q103 0 151 -101q23 -50 23 -111zM205 1462h-90v-94h-48l-1 142h139v-48zM1561 11l-140 1v48l92 -2v94h48
v-141zM773 998l-574 -221v81l417 150q27 9 49.5 17t44.5 14q-22 6 -45.5 14t-48.5 16l-417 155v78l574 -226v-78zM115 1086h-48v189h48v-189zM1329 12h-188v48h188v-48zM115 806h-48v187h48v-187zM1048 12h-188v48h188v-48zM773 245h-574v386h67v-311h179v269h68v-269h260
v-75zM115 525h-48v188h48v-188zM768 12h-188v48h188v-48zM115 245h-48v187h48v-187zM487 12h-189v48h189v-48zM205 12h-138v140h48v-94l90 2v-48z" />
    <glyph glyph-name="MFVS_two" unicode="&#x180c;" horiz-adv-x="1625" 
d="M1561 1368h-48v94h-92v48h140v-142zM1329 1462h-188v48h188v-48zM1561 1086h-48v189h48v-189zM1048 1462h-188v48h188v-48zM1561 806h-48v187h48v-187zM1440 838h-3q-55 0 -123 55q-19 15 -40 38t-45 54q-132 160 -208 160q-44 0 -71 -31.5t-27 -76.5q0 -112 114 -113
l-7 -73q-166 15 -167 188q0 75 43 125q44 54 117 53q69 0 138 -61q34 -30 100 -108q44 -55 52 -61q31 -33 59 -50v280h68v-379zM768 1462h-188v48h188v-48zM1561 525h-48v188h48v-188zM487 1462h-189v48h189v-48zM1561 245h-48v187h48v-187zM1452 504q0 -154 -92 -214
q-42 -28 -104 -31l-6 71q86 9 116 82q18 42 17 88q0 93 -48 127q-21 15 -49 16q-57 0 -81 -68q-6 -12 -13.5 -39t-16.5 -68q-8 -36 -16.5 -62.5t-17.5 -43.5q-42 -81 -126 -81q-97 0 -138 97q-21 45 -20 105q0 135 82 188q39 25 91 27l4 -71q-109 -11 -110 -141
q0 -132 87 -132q44 0 67 50q8 19 25 86q11 47 19.5 79t16.5 50q45 97 139 97q103 0 151 -102q23 -50 23 -110zM205 1462h-90v-94h-48v142h138v-48zM1561 11l-140 1v48l92 -2v94h48v-141zM773 998l-574 -221v81l417 150q27 9 49.5 17t44.5 14q-22 6 -45.5 14t-48.5 16
l-417 155v78l574 -226v-78zM115 1086h-48v189h48v-189zM1329 12h-188v48h188v-48zM115 806h-48v187h48v-187zM1048 12h-188v48h188v-48zM773 245h-574v386h67v-311h179v269h68v-269h260v-75zM115 525h-48v188h48v-188zM768 12h-188v48h188v-48zM115 245h-48v187h48v-187z
M487 12h-189v48h189v-48zM205 12h-138v140h48v-94l90 2v-48z" />
    <glyph glyph-name="MFVS_three" unicode="&#x180d;" horiz-adv-x="1625" 
d="M1561 1368h-48v94h-92v48h140v-142zM1329 1462h-188v48h188v-48zM1561 1086h-48v189h48v-189zM1048 1462h-188v48h188v-48zM1561 806h-48v187h48v-187zM1456 1024q0 -75 -43.5 -125t-118.5 -57l-10 70q112 24 114 112q0 50 -34.5 85t-86.5 35q-48 0 -79.5 -32.5
t-31.5 -80.5q0 -11 2 -22.5t6 -27.5l-63 7q2 5 1 12q0 50 -23 81q-27 36 -72 36q-41 0 -65.5 -26.5t-24.5 -67.5q0 -86 103 -103l-12 -71q-151 25 -150 174q0 100 75 146q36 22 75 22q80 0 116 -80q25 108 141 108q80 0 132 -58q49 -56 49 -137zM768 1462h-188v48h188v-48z
M1561 525h-48v188h48v-188zM487 1462h-189v48h189v-48zM1561 245h-48v187h48v-187zM1452 504q0 -154 -92 -214q-42 -28 -104 -31l-6 71q86 9 116 82q18 42 17 88q0 93 -48 127q-21 15 -49 16q-57 0 -81 -68q-6 -12 -13.5 -39t-16.5 -68q-8 -36 -16.5 -62.5t-17.5 -43.5
q-42 -81 -126 -81q-97 0 -138 97q-21 45 -20 105q0 135 82 188q39 25 91 27l4 -71q-109 -11 -110 -141q0 -132 87 -132q44 0 67 50q8 19 25 86q11 47 19.5 79t16.5 50q45 97 139 97q103 0 151 -102q23 -50 23 -110zM205 1462h-90v-94h-48v142h138v-48zM1561 11l-140 1v48
l92 -2v94h48v-141zM773 998l-574 -221v81l417 150q27 9 49.5 17t44.5 14q-22 6 -45.5 14t-48.5 16l-417 155v78l574 -226v-78zM115 1086h-48v189h48v-189zM1329 12h-188v48h188v-48zM115 806h-48v187h48v-187zM1048 12h-188v48h188v-48zM773 245h-574v386h67v-311h179v269
h68v-269h260v-75zM115 525h-48v188h48v-188zM768 12h-188v48h188v-48zM115 245h-48v187h48v-187zM487 12h-189v48h189v-48zM205 12h-138v140h48v-94l90 2v-48z" />
    <glyph glyph-name="M_vowel_separator" unicode="&#x180e;" horiz-adv-x="200" 
 />
    <glyph glyph-name="MD_zero" unicode="&#x1810;" 
d="M50 654v44q0 196 215 264q28 9 61 43q31 -33 65 -44q4 -1 11 -3q4 1 9 3q34 11 66 44q33 -34 61 -43q215 -68 215 -264v-44q0 -196 -215 -264q-28 -9 -61 -43q-32 33 -66 44q-5 1 -9 3q-2 0 -5.5 -1t-5.5 -2q-33 -11 -65 -44q-33 34 -61 43q-215 68 -215 264zM105 676
q0 -177 221 -177q44 0 76 43q35 -43 74 -43q222 1 222 177t-222 177q-39 0 -74 -43q-33 43 -76 43q-221 0 -221 -177z" />
    <glyph glyph-name="MD_one" unicode="&#x1811;" 
d="M445 603l49 -17q40 -61 -7 -124q-36 -45 -96 -71q-39 -17 -65 -44q-33 34 -61 43q-215 68 -215 264v44q0 196 215 264q28 9 61 43q31 -33 65 -44q5 -1 11 -3q4 1 9 3q34 11 66 44q33 -34 61 -43q215 -68 215 -264v-44q-1 -179 -151 -264q-16 -10 -23 -40q-43 13 -44 68
q-1 64 68 93q95 39 95 165q0 176 -222 177q-39 0 -74 -43q-33 43 -76 43q-221 0 -221.5 -176.5t221.5 -177.5q116 4 119 104z" />
    <glyph glyph-name="MD_two" unicode="&#x1812;" 
d="M751 454v-78q-28 21 -63 26q-179 26 -286 -8q-2 -1 -5.5 -1.5q-31.7814 -4.5402 -71.5 -45.5q-32 34 -60 43q-215 68 -215 264v44q0 196 215 264q27 9 60 43q28 -28 80 -45q100.444 -74.8409 150.722 -132.92q65.7647 -75.9696 113.278 -145.08q21 80 21 156q0 2 -22.5 8
q-69.8589 18.629 -93.5 55q-44 66 11 94q24.9518 -42.7744 126.5 -68.5q37.5 -9.5 39.5 -10.5v-315q-51 10 -96 10q-187 235 -329 242q-222 0 -222 -177t222 -177q30 1 144 12.5t197.5 7t83.5 -64.5z" />
    <glyph glyph-name="MD_three" unicode="&#x1813;" horiz-adv-x="798" 
d="M749 441v-72q-27 28 -84 35q-167 22 -267 -10q-2 -1 -5.5 -2q-37.1587 -10.6168 -70.5 -45q-33 34 -61 43q-77 24 -106 35.5t-67 57t-38 111.5t54 114q-36 76 1.5 136.5q57.6111 92.9459 156 110q37.5 6.5 54 11.5t49.5 39q27 -28 104.734 -53.9112
q77.7336 -25.9112 127.742 -81.3555q50.0085 -55.4443 70.5242 -106.733q18 71 34 160q10 -5 47 -13v-244l-96 17q-94 174 -308 180q-219 -3 -204 -128q95 56 190 10.5t139 -17.5q19 12 46 -12.5t27 -54.5q-13 1 -50 -32t-70.5 -29.5t-76 35t-63.5 41.5q-102 46 -150 2
q-24 -22 -23 -62q3 -139 225 -116t318 19t96 -78z" />
    <glyph glyph-name="MD_four" unicode="&#x1814;" 
d="M194 601q1 55 39 82.5t69 0.5q-24 -11 -27.5 -56t18.5 -71q53 -59 184 -56q221 6 221 177q1 176 -221 177q-40 0 -75 -43q-32 43 -75 43q-213 -1 -211 -172q1 -109 -58 -115q-31 -3 -44.5 12.5t-13.5 45.5q44 2 44 66q2 238 221 272q23 3 61 43q32 -33 66 -44q3 0 11 -3
q4 1 9 3q33 11 65 44q33 -34 61 -43q215 -68 215 -264v-44q0 -196 -215 -264q-28 -9 -61 -43q-31 32 -65 43q-5 2 -9 4q-56 12 -105 32q-105 42 -104 173z" />
    <glyph glyph-name="MD_five" unicode="&#x1815;" horiz-adv-x="807" 
d="M50 718q1 221 227 245q28 9 61 44q6 -5 25 -23.5t33 -25.5q36 -37 112.5 -56.5t140.5 -8.5t63 52q-2 23 -9 31q15 19 39.5 6t24.5 -41q1 -154 -176 -150q-60 3 -147 34.5t-149 32.5q-187 2 -188 -139v-6q5 -136 188 -133q62 1 149 32.5t147 34.5q179 4 176 -163
q-2 -113 -107 -135q-56 -11 -82 22.5t5 78.5q8 -13 38 -15q90 -7 90 55q-2 67 -130 58.5t-185 -68.5q-13 -8 -32.5 -26.5t-25.5 -22.5q-33 35 -61 44q-109 11 -166 68q-61 61 -61 175z" />
    <glyph glyph-name="MD_six" unicode="&#x1816;" 
d="M494 856q-78 -4 -106 -73.5t8 -130.5q-77 -18 -122 -13q-64 16 -46 94q55 -7 84 2q-18 92 25 157q30 45 92 72q40 17 66 44q32 -34 60 -43q215 -69 215 -265v-43q0 -197 -215 -265q-27 -9 -60 -43q-32 33 -66 44q-2 1 -5.5 2t-5.5 2q-4 -2 -9 -4q-33 -11 -65 -44
q-33 34 -61 43q-264 81 -256 304q2 56 -27 79q41 43 88 20q59 -28 45 -114q-12 -68 23 -117q47 -64 165 -65q8 0 23 2q40 0 75 43q32 -43 75 -43q222 1 222 178t-222 177z" />
    <glyph glyph-name="MD_seven" unicode="&#x1817;" 
d="M50 657v44q0 196 215 264q28 9 61 43q31 -32 65 -43q2 -1 11 -4q4 2 9 4q34 10 66 43q33 -34 61 -43q216 -40 215 -198q-1 -163 -138 -164q-35 0 -72.5 15t-74.5 15q-92 0 -92 -76q0 -79 116 -77q35 1 98.5 17.5t107.5 6.5q46 -11 52.5 -54.5t-14.5 -59.5q-16 32 -54 35
q-35 2 -131 -38q-28 -9 -61 -43q-31 32 -65 43q-97 39 -98 170q-2 172 139 170q46 -1 86.5 -18t61.5 -17q89 -1 91 70q3 125 -229 94q-38 0 -74 -43q-33 43 -76 43q-221 0 -221 -177q0 -96 59 -139q73 -45 77 -76q9 -59 -51 -84q-7 46 -46 77q-94 75 -94 200z" />
    <glyph glyph-name="MD_eight" unicode="&#x1818;" 
d="M752 407q-74 20 -99 21q1 63 -72 82q-97 24 -253 20q-3 -1 -25.5 -1.5t-61.5 -23.5q-21 42 -46 58q-145 97 -145 239q0 2 4.5 35.5t-2.5 40.5q60 6 58 -67q-3 -108 174 -159q27 -7 136 -18.5t147.5 -27.5t70.5 -46q1 51 27.5 126.5t28.5 90.5q0 2 -22 4.5
q-70.8311 8.04883 -97.415 40.2744q-26.585 32.2256 -22.585 74.2256t26 49q33 -36 56.5 -46t50 -15.5t45.5 -8t22 -4.5v-464z" />
    <glyph glyph-name="MD_nine" unicode="&#x1819;" 
d="M303 855q-199 0 -199 -178t222 -178q43 0 75 43q36 -43 75 -43q77 -12 144 32t68 129q1 55 -45 121q-35 44 -26 93q10 49 56 53q2 -37 20 -52q84 -68 75 -210q-12 -207 -231 -275q-28 -9 -61 -43q-32 33 -65 44q-5 2 -9 4q-2 -1 -6 -2q-39 -13 -70 -46q-33 34 -61 43
q-215 68 -215 265v44q0 196 215 264q28 9 61 43q26 -27 65 -44q21 -14 36.5 -36.5t24.5 -43t13 -24.5q25 18 54 66q73 -33 46 -94q-23 -39 -85 -89q-77.9798 114 -177 114z" />
    <glyph glyph-name="ML_A" unicode="&#x1820;" horiz-adv-x="1040" 
d="M6 755q51 1 102 93q34 67 53 91q9 11 39 43t101 32q105 1 160.5 -81t54.5 -193v-21h224q0.144531 202.246 59 302q51 83 124 141q75 61 111 125q6 -19 1 -34q-13 -41 -31 -68q-101 -148 -118 -180q-39 -73 -38 -287v-291q0 -89 40 -130h-109q-39 41 -39 130v162h-192
v-162q1 -90 40 -130h-108q-40 41 -40 130v286.5q0 171.5 -140 172.5q-81 0 -148 -80q-101 -120 -146 -51z" />
    <glyph glyph-name="ML_E" unicode="&#x1821;" horiz-adv-x="1050" 
d="M548 589v-162q0 -89 40 -130h-108q-40 41 -40 130v286.5q0 171.5 -140 172.5q-81 0 -148 -80q-101 -120 -146 -51q51 1 102 93q34 67 53 91q9 11 39 43t101 32q105 1 160.5 -81q54.5 -82 54.5 -193v-21h420q75 0 75 -76v-54q0 -267 -239 -506q-32 -32 -16.5 -60.5
q14.5 -26.5 53.5 -26.5q6 0 51.5 0.5t55.5 0.5q74 -1 74 -98v-75q-15 43 -65 43h-134q-100 0 -91 129q2 29 102.5 199.5t100.5 360.5q-1 33 -32 33h-323z" />
    <glyph glyph-name="ML_I" unicode="&#x1822;" horiz-adv-x="1174" 
d="M941 257q-16 16 -72 47q-129 70 -128.99 285h-192.01v-162q0 -90 40 -130h-108q-40 41 -40 130v286.5q0 171.5 -140 172.5q-81 0 -148 -80q-101 -120 -146 -51q51 1 102 93q34 67 53 91q9 11 39 43t101 32q105 1 161 -81q54 -82 54 -193v-21h224.318
q-0.318359 223 162.682 272q27 9 60 43q32 -33 66 -44q102 -33 131 -204q-14 -9 -39 -17q-47 113 -157 113q-170 1 -170 -227v-22q0 -198 147 -224v-152z" />
    <glyph glyph-name="ML_O" unicode="&#x1823;" horiz-adv-x="1140" 
d="M794 513q0 -151 136 -151q135 0 135 151v76h-271v-76zM1119 436q0 -141 -124 -182q-33 -11 -65 -44q-33 34 -61 43q-128 41 -128 183v153h-193v-162q0 -89 40 -130h-108q-40 41 -40 130v286.5q0 171.5 -140 172.5q-81 0 -148 -80q-101 -120 -146 -51q51 1 102 93
q34 67 53 91q9 11 39 43t101 32q105 1 160.5 -81q54.5 -82 54.5 -193v-21h603v-283z" />
    <glyph glyph-name="ML_U" unicode="&#x1824;" horiz-adv-x="1130" 
d="M794 513q0 -151 136 -151q135 0 135 151v76h-271v-76zM1119 719v-283q0 -141 -124 -182q-33 -11 -65 -44q-33 34 -61 43q-128 41 -128 183v153h-193v-162q1 -90 40 -130h-108q-40 41 -40 130v286.5q0 171.5 -140 172.5q-81 0 -148 -80q-101 -120 -146 -51q51 1 102 93
q34 67 53 91q9 11 39 43t101 32q105 1 160.5 -81t54.5 -193v-21h603z" />
    <glyph glyph-name="ML_OE" unicode="&#x1825;" horiz-adv-x="1500" 
d="M794 513q0 -151 136 -151q135 0 135 151v76h-271v-76zM1371 719q40 0 85 -66q44 -65 44 -172q-1 -122 -43 -162h-112q91 49 91 162q0 108 -91 108h-226v-153q0 -141 -124 -182q-33 -11 -65 -44q-33 34 -61 43q-128 41 -128 183v153h-193v-162q0 -89 40 -130h-108
q-40 41 -40 130v286.5q0 171.5 -140 172.5q-81 0 -148 -80q-101 -120 -146 -51q51 1 102 93q34 67 53 91q9 11 39 43t101 32q105 1 160.5 -81q54.5 -82 54.5 -193v-21h855z" />
    <glyph glyph-name="ML_UE" unicode="&#x1826;" horiz-adv-x="1520" 
d="M754 513q0 -151 136 -151q135 0 135 151v76h-271v-76zM1079 589v-153q0 -141 -124 -182q-33 -11 -65 -44q-33 34 -61 43q-128 41 -128 183v153h-153v-162q0 -89 40 -130h-108q-40 41 -40 130v286.5q0 171.5 -140 172.5q-81 0 -148 -80q-101 -120 -146 -51q51 1 102 93
q34 67 53 91q9 11 39 43t101 32q105 1 160.5 -81q54.5 -82 54.5 -193v-21h1034v-130h-230q0 -198 35 -282q31.5 -75.5996 116 -177q30 -36 34 -76q2 -17 -1 -32q-32 57 -111.5 122.5q-75.5 60.5 -123.5 141.5q-59 100 -59 303h-131z" />
    <glyph glyph-name="ML_EE" unicode="&#x1827;" horiz-adv-x="1400" 
d="M516 719h739q40 0 85 -66q44 -65 44 -172q-1 -122 -43 -162h-112q91 49 91 162q0 108 -91 108h-381q0 -155 17 -211q32 -107 89 -176q44 -54 85 -40q44 16 42 80q80 -46 21 -136q-31 -48 -97 -46q-4 -57 -52 -91q24 115 -15 192q-18 34 -69.5 89t-76.5 97q-52 87 -52 242
h-192v-162q0 -89 40 -130h-108q-40 41 -40 130v286.5q0 171.5 -140 172.5q-81 0 -148 -80q-101 -120 -146 -51q51 1 102 93q34 67 53 91q9 11 39 43t101 32q105 1 160.5 -81q54.5 -82 54.5 -193v-21z" />
    <glyph glyph-name="ML_NA" unicode="&#x1828;" horiz-adv-x="770" 
d="M582 64q1 -91 40 -130h-109q-39 40 -39 130h108zM0 755q51 1 102 93q34 67 53 91q9 11 39 43t101 32q105 1 160.5 -81t54.5 -193v-21h254v-130h-222v-162q1 -90 40 -130h-108q-40 41 -40 130v286.5q0 171.5 -140 172.5q-81 0 -148 -80q-101 -120 -146 -51z" />
    <glyph glyph-name="ML_ANG" unicode="&#x1829;" horiz-adv-x="694" 
d="M474 265h-118q-9 36 -22 54q-65 91 -65 205v65h-161v-162q1 -90 40 -130h-109q-39 41 -39 130v292h269q-1 233 150 281q28 9 61 43q32 -33 66 -44q144 -47 144 -270v-140h-54v86q0 216 -155 216q-158 1 -158 -206v-96q0 -78 26 -132q24 -50 68 -75q29 -17 43 -48
q14 -30 14 -69z" />
    <glyph glyph-name="ML_BA" unicode="&#x182a;" horiz-adv-x="563" 
d="M0 436v348q0 203 215 271q28 9 61 43q32 -33 66 -44q210 -68 209 -270v-195h-54v141q0 99 -68 157.5t-152 58.5q-91 1 -157 -57.5t-66 -169.5h325q-1 -103 -1 -283q0 -142 -123 -182q-33 -11 -65 -44q-33 35 -61 44q-129 40 -129 182zM54 514q1 -151 135.5 -151
t134.5 151v75h-270v-75z" />
    <glyph glyph-name="ML_PA" unicode="&#x182b;" horiz-adv-x="570" 
d="M105 131h45q76 -1 74 -97v-75q-15 43 -65 43h-72q-87.0157 0 -86 129q0 79 22 135q16 42 0 76q0 1 -4 12q-4.282 11.776 -5 12q33.1905 41 38 41q19 -1 56.5 -23t82.5 -22q134 1 134 152v75h-325v195q0 203 216 271q28 9 61 43q31 -33 65 -44q211 -68 210 -270v-195h-54
v141q0 98 -68.5 157t-152.5 59q-91 0 -156.5 -58t-65.5 -158v-11h324v-283q0 -142 -123 -182q-34 -11 -66 -44q-32 34 -60 43q-8 3 -27 13.5t-22 10.5q-27.2 0 -32 -72q-4 -74 56 -74z" />
    <glyph glyph-name="ML_QA" unicode="&#x182c;" horiz-adv-x="920" 
d="M616 706q0 237 -156 238q-159 1 -160 -227q0 -114 33 -177q42 -80 41 -147q-1 -70 -26 -130h-107q29 31 33 113.5q4 85.5 -18 133.5q-41 88 -129 88q-56 0 -126 -34q2 164 125 163q57 0 118 -78q-7 55 -6 100q0 252 160 304q28 9 61 43q29 -31 66 -44q145 -54 145 -292
v-43h236v-130h-182v-160q0 -90 40 -131h-108q-40 40 -40 131v279z" />
    <glyph glyph-name="ML_GA" unicode="&#x182d;" horiz-adv-x="875" 
d="M452 70q1 -91 40 -130h-109q-39 40 -39 130h108zM768 70q1 -91 40 -130h-109q-39 40 -39 130h108zM615 708q0 237 -156 238q-159 1 -160 -227q0 -114 33 -177q42 -80 41 -147q-1 -70 -26 -130h-107q29 31 33 113.5q4 85.5 -18 133.5q-41 88 -129 88q-56 0 -126 -34
q2 164 125 163q57 0 118 -78q-7 55 -6 100q0 252 160 304q28 9 61 43q29 -31 66 -44q145 -54 145 -292v-43h236v-130h-182v-160q0 -90 40 -131h-108q-40 40 -40 131v279z" />
    <glyph glyph-name="ML_MA" unicode="&#x182e;" horiz-adv-x="790" 
d="M494 1071q-33 0 -50.5 -44.5t10.5 -84.5q62 -90 62 -202v-21h254v-130h-222v-162q0 -90 40 -130h-109q-39 41 -39 130v291q0 167 -140 168q-82 0 -149 -80q-99 -121 -145 -51q51 1 102 93q36 72 52 91q10 11 32 35t48 32q92 28 167 -21q-20 44 -22 87q-6 126 89 128h197
q51 0 65 44v-75q3 -98 -74 -98h-168z" />
    <glyph glyph-name="ML_LA" unicode="&#x182f;" horiz-adv-x="780" 
d="M362 1071h-168q-75 1 -74 98v75q14 -44 65 -43h195q96 -2 91 -129q-2 -50 -29 -102q-12 -6 -8 -12q76 -91 76 -218v-21h254v-130h-222v-162q0 -89 40 -130h-108q-40 40 -40 130v291q0 167 -140 168q-81 1 -148 -80q-100 -121 -146 -51q56 1 102 93q34 67 47.8574 84.7139
q14.1426 17.2861 36.6426 41.2861q37.5 40 107.5 40t121 -39q21 96 -53 96z" />
    <glyph glyph-name="ML_SA" unicode="&#x1830;" horiz-adv-x="960" 
d="M719 589v-162q0 -90 40 -130h-109q-39 41 -39 130q0 455 -79 570q-87 -1 -198 -223q-109 -217 -198 -217q-58 0 -92 48t-38.5 76.5t-5.5 47.5q55 -35 114 -34q97 1 164 125q21 38 54 106.5t50 101t47.5 64.5t65.5 40q18 5 61 44q92 -197 109 -457h276v-130h-222z" />
    <glyph glyph-name="ML_SHA" unicode="&#x1831;" horiz-adv-x="970" 
d="M416 1453h108q1 -66 39 -130h-108q-39 41 -39 130zM720 1453h108q1 -66 39 -130h-108q-39 41 -39 130zM728 589v-162q0 -90 40 -130h-109q-39 41 -39 130q0 455 -79 570q-87 -1 -198 -223q-109 -217 -198 -217q-58 0 -92 48t-38.5 76.5t-5.5 47.5q55 -35 114 -34
q97 1 164 125q21 38 54 106.5t50 101t47.5 64.5t65.5 40q18 5 61 44q92 -197 109 -457h276v-130h-222z" />
    <glyph glyph-name="ML_TA" unicode="&#x1832;" horiz-adv-x="630" 
d="M0 873q0 142 128 183q28 9 61 43q32 -33 65 -44q124 -41 124 -182v-154h236v-130h-182v-162q0 -89 40 -130h-108q-40 41 -40 130v162h-178q-121 0 -122 -108h-24v392zM53 796v-77h271v77q0 151 -135 151q-136 0 -136 -151z" />
    <glyph glyph-name="ML_DA" unicode="&#x1833;" horiz-adv-x="600" 
d="M0 589v130h630v-130h-522q0 -156 13 -227q10 5 31.5 15.5t31.5 15.5q119 57 206 -37q24 -26 67 -40q-17 -44 -12 -73q19 -129 -94 -189q-40 -21 -49 -99t-34 -94q7 44 -11 93t-42 84.5t-72 101t-74 104.5q-69 105 -69 345zM137 310q-3 -2 31 -76q62 -121 103 -158
q121 74 69 184q-58 119 -203 50z" />
    <glyph glyph-name="ML_CHA" unicode="&#x1834;" horiz-adv-x="769" 
d="M6 676q0 43 87 43h665v-130h-196q1 -173 48 -262q-56 -92 -68 -117q-19 33 -73 34h-57q-93 -4 -123 -119h-13q-29 205 -151 227v11h407q-30 83 -34 226h-405q-67 0 -87 -44v131z" />
    <glyph glyph-name="ML_JA" unicode="&#x1835;" horiz-adv-x="340" 
d="M295 54q-1 -16 -1 -32q-32 59 -111.5 122.5q-75.5 60.5 -123.5 141.5q-59 100 -59 303v130h330v-130h-220q0 -237 36 -287q3 -4 118 -180q32 -49 31 -68z" />
    <glyph glyph-name="ML_YA" unicode="&#x1836;" horiz-adv-x="340" 
d="M276 73q-6 -45 -48 -82t-98 -12q-49 22 -51.5 73t32.5 49q21 -30 54 -29q27 1 42.5 32t1.5 63q-16 37 -75 88.5t-83 91.5q-51 87 -51 242v130h330v-130h-222q0 -155 17 -210q18 -61 88.5 -146.5q72.5 -87.5 62.5 -159.5z" />
    <glyph glyph-name="ML_RA" unicode="&#x1837;" horiz-adv-x="830" 
d="M216 136q0 59 188 337q-100 116 -165 116h-142q-66 0 -86 -44v54.5v75.5q0 44 86 44h138l61 41q23 -17 47 -53t54.5 -89t54.5 -86q89 116 128 164q49 60 51 66q22 -43 75 -43h114v-130h-110q-107 0 -211 -115q134 -162 134 -292q0 -77 -54 -133h-101q36 65 38 126
q3 120 -75 247q-117 -241 -117 -286h-108z" />
    <glyph glyph-name="ML_WA" unicode="&#x1838;" horiz-adv-x="400" 
d="M265 60q-4 -57 -52 -91q24 115 -15 192q-18 34 -69.5 89t-76.5 97q-52 87 -52 242v130h324v-130h-216q0 -155 17 -211q32 -107 89 -176q44 -54 85 -40q44 16 42 80q80 -46 21 -136q-31 -48 -97 -46z" />
    <glyph glyph-name="ML_FA" unicode="&#x1839;" horiz-adv-x="570" 
d="M119 131q33 0 49.5 41t-10.5 89q29 -5 41 -30q26 -52 29 -102q6 -129 -90 -129h-73q-51 0 -65 -42v75q-2 97 74 98h45zM0 436q0 -141 129 -182q28 -9 61 -44q32 33 65 44q123 40 123 182v283h-324q0 111 66 169.5t157 57.5q86 0 154 -58.5t68 -157.5v-141h54v195
q0 202 -211 270q-34 11 -66 44q-33 -34 -61 -43q-215 -68 -215 -271v-348zM54 514v75h270v-75q0 -151 -134.5 -151t-135.5 151z" />
    <glyph glyph-name="ML_KA" unicode="&#x183a;" horiz-adv-x="620" 
d="M19 189q-4 139 120 251q-10 43 -10 84v238q1 238 173 293q27 9 60 43q32 -33 66 -44q172 -56 171 -292v-173h-59v119q0 238 -177 238q-180 0 -180 -228v-130q0 -131 23 -162q85 -110 85 -162q-96 1 -107 1q-1 28 -28 113q-31 -59 -30 -186q-90 -2 -107 -3z" />
    <glyph glyph-name="ML_KHA" unicode="&#x183b;" horiz-adv-x="476" 
d="M0 524v238q1 238 173 293q27 9 60 43q32 -33 66 -44q172 -56 171 -292v-173h-59v119q0 238 -177 238q-180 1 -180 -227h173v-130h-173q0 -131 23 -162q85 -110 85 -162h-107q-1 29 -27.5 112.5t-27.5 146.5z" />
    <glyph glyph-name="ML_TSA" unicode="&#x183c;" horiz-adv-x="811" 
d="M402 245h-115q-92 0 -123 -119h-13q-29 204 -151 227v10h200h207q-30 83 -34 226h-373v130h803v-130h-366q1 -172 47 -261q58 -110 92 -110q58 -1 58 53q1 54 -58 55q-41 1 -55 13q-11 9 -28 59q-7 21 -11 28q17 -8 73 -1q172 21 172 -133q0 -137 -138 -146
q-71 -4 -114 65q-20 32 -73 34z" />
    <glyph glyph-name="ML_ZA" unicode="&#x183d;" horiz-adv-x="822" 
d="M382 245h-96q-91 0 -122 -119h-14q-28 204 -150 226v11h406q-30 82 -34 226h-372v130h801v-130h-365q1 -133 28 -213q64 -190 109 -192q26 -2 58 32q36 39 51 34l-0.5 -15.5q-0.5 -9.5 -0.5 -14.5q-8 0 -42.5 -51t-74.5 -51q-25 0 -44 16.5t-36.5 44t-28.5 37.5
q-31 28 -73 29z" />
    <glyph glyph-name="ML_HAA" unicode="&#x183e;" horiz-adv-x="1290" 
d="M399 971l41 -30q75 -69 75 -176v-46h304v-130q0 -168 29.5 -221.5t103 -155t92.5 -140.5q41 13 47.5 75.5t-77.5 174t-85 267.5v130h341v-130h-288q0 -143 74 -240q14 -18 57 -58t64.5 -78t21.5 -97t-48 -113q-80 -88 -83 -103q-7 -33 -39 -46q17 103 -19 179
q-20 43 -211 253q-87 96 -87 303h-164v-162q0 -89 40 -129h-109q-39 40 -39 129v286q0 137 -141 136q-73 0 -137.5 -77.5t-83.5 -82.5q-50 -14 -73 29q46 1 102 103q4 7 23 42q54 100 110 120q81 27 159 -12z" />
    <glyph glyph-name="ML_ZRA" unicode="&#x183f;" horiz-adv-x="833" 
d="M46 742v-218q1 -152 94.5 -246.5t93.5 -156.5l-124 1q0 25 -68 167q-42 89 -42 214v242q1 436 315 437q279 2 308 -237q7 -65 -22 -135q6 -34 6 -70v-22h216v-130h-184v-162q1 -89 40 -129h-108q-40 40 -40 129v292q0 167 -140 168q-81 0 -148 -80
q-100.528 -120.196 -146 -51q51 1 102 93q34.4 68.8 53 90.5q9 10.5 39.469 43t100.531 32.5q127 0 184 -124q5 27 0 54q-35 186 -261 185q-270 -1 -269 -387z" />
    <glyph glyph-name="ML_LHA" unicode="&#x1840;" horiz-adv-x="1300" 
d="M647 1072h-168q-34 0 -50 -41.5t11 -89.5q75 -69 75 -176v-46h304v-130q0 -168 29.5 -221.5t103 -155t92.5 -140.5q41 13 47.5 75.5t-77.5 174t-85 267.5v130h341v-130h-288q0 -143 74 -240q14 -18 57 -58t64.5 -78t21.5 -97t-48 -113q-80 -88 -83 -103q-7 -33 -39 -46
q17 103 -19 179q-20 43 -211 253q-87 96 -87 303h-164v-162q0 -89 40 -129h-109q-39 40 -39 129v286q0 137 -141 136q-73 0 -137.5 -77.5t-83.5 -82.5q-50 -14 -73 29q46 1 102 103q4 7 23 42q54 100 110 120q81 27 159 -12q-27 52 -29 102q-6 126 90 128h196q49 0 64 44
q0 -43 1 -75q3 -97 -74 -98z" />
    <glyph glyph-name="ML_ZHI" unicode="&#x1841;" horiz-adv-x="580" 
d="M0 589v130h107v-130q0 -168 29.5 -221.5t103 -155t92.5 -140.5q41 13 47.5 75.5t-77.5 174t-85 267.5v130h341v-130h-288q0 -143 74 -240q14 -18 57 -58t64.5 -78t21.5 -97t-48 -113q-80 -88 -83 -103q-7 -33 -39 -46q17 103 -19 179q-20 43 -211 253q-87 96 -87 303z
" />
    <glyph glyph-name="ML_CHI" unicode="&#x1842;" horiz-adv-x="1140" 
d="M53 513q0 -151 136 -151q135 0 135 151v76h-271v-76zM613 513q0 -151 136 -151q135 0 135 151v76h-271v-76zM1160 719v-130h-222v-153q0 -140.667 -124 -182q-33 -11 -65 -44q-33 34 -61 43q-128 41 -128 183v153h-182v-153q0 -140.667 -124 -182q-33 -11 -65 -44
q-33 34 -61 43q-128 41 -128 183v283h1160z" />
    <glyph glyph-name="narrow_no_break_space" unicode="&#x202f;" horiz-adv-x="160" 
 />
    <glyph glyph-name="uniF301" unicode="&#xf301;" horiz-adv-x="1180" 
d="M976 663v-29q0 -125 -137 -168q-18 -6 -39 -28q-28 29 -49 29q-3 0 -15 -4t-33 -25q-24 24 -39 28q-99 19 -193 165q-70 111 -166 112q-22 1 -105 -32q-14 67 70 107q16 8 31 24q16 -17 30 -24q47 -15 82 -51q21 -21 31.5 -33.5t38 -49.5t40.5 -52q76 -96 180 -97
q26 0 48 28q21 -28 49 -28q141 0 141.5 113t-141.5 114q-120 1 -123 -111l-32 11q-12 19 -12 33q3 101 125 137q20 5 42 27q21 -22 39 -27q137 -44 137 -169z" />
    <glyph glyph-name="ML_A.init" unicode="&#xf304;" horiz-adv-x="940" 
d="M970 719v-130h-182v-162q0 -90 40 -130h-108q-40 41 -40 130v162h-152v-162q0 -89 40 -130h-108q-40 41 -40 130v286.5q0 171.5 -140 172.5q-81 0 -148 -80q-101 -120 -146 -51q51 1 102 93q34 67 53 91q9 11 39 43t101 32q105 1 160.5 -81q54.5 -82 54.5 -193v-21h474z
" />
    <glyph glyph-name="ML_A.medi" unicode="&#xf305;" horiz-adv-x="260" 
d="M0 718h290v-129h-182v-162q0 -90 40 -130h-108q-40 41 -40 130v291z" />
    <glyph glyph-name="ML_E.init" unicode="&#xf306;" horiz-adv-x="680" 
d="M-14 755q51 1 102 93q34 67 53 91q9 11 39 43t101 32q105 1 160.5 -81q54.5 -82 54.5 -193v-21h214v-130h-182v-162q0 -89 40 -130h-108q-40 41 -40 130v286.5q0 171.5 -140 172.5q-81 0 -148 -80q-101 -120 -146 -51z" />
    <glyph glyph-name="ML_A.medi1" unicode="&#xf307;" horiz-adv-x="520" 
d="M550 719v-130h-182v-162q0 -90 40 -130h-108q-40 41 -40 130v162h-152v-162q0 -90 40 -130h-108q-40 41 -40 130v292h550z" />
    <glyph glyph-name="ML_A.fina" unicode="&#xf308;" horiz-adv-x="316" 
d="M30 427v162h-30v130h30q0 206 59 302q51 83 124 141q75 61 111 125q6 -19 1 -34q-13 -41 -31 -68q-101 -148 -118 -180q-39 -73 -38 -287v-291q0 -89 40 -130h-109q-39 41 -39 130z" />
    <glyph glyph-name="ML_A.fina1" unicode="&#xf309;" horiz-adv-x="400" 
d="M295 -4q74 -1 74 -97v-75q-15 43 -65 43h-134q-100 0 -91 129q2 29 102.5 199.5q105.5 179.5 100.5 360.5q-1 33 -32 33h-147v130h212q75 0 75 -76v-54q0 -267 -239 -506q-32 -32 -16.5 -60.5q14.5 -26.5 53.5 -26.5h107z" />
    <glyph glyph-name="ML_I.init" unicode="&#xf30a;" horiz-adv-x="940" 
d="M518 589v-162q0 -89 40 -130h-108q-40 41 -40 130v286.5q0 171.5 -140 172.5q-81 0 -148 -80q-101 -120 -146 -51q51 1 102 93q34 67 53 91q9 11 39 43t101 32q105 1 160.5 -81q54.5 -82 54.5 -193v-21h484v-130h-230q0 -203 25 -282q22.3965 -65.7771 116 -177
q30 -36 34 -76q2 -17 -1 -32q-38.4194 67.799 -111.5 122.5q-83.5 63.5 -123.5 141.5q-49 95.7234 -49 303h-112z" />
    <glyph glyph-name="ML_I.fina" unicode="&#xf30b;" horiz-adv-x="428" 
d="M54 655v-22q-1 -198 147 -224v-73.5v-78.5q-16 16 -72 47q-127 70 -129 286v108q0 242 163 293q27 9 60 43q32 -33 66 -44q102 -33 131 -204q-14 -9 -39 -17q-47 113 -157 113q-170 1 -170 -227z" />
    <glyph glyph-name="ML_O.medi" unicode="&#xf30c;" horiz-adv-x="530" 
d="M0 719h560v-130h-182v-153q0 -141 -124 -182q-33 -11 -65 -44q-33 34 -61 43q-128 41 -128 183v283zM53 513q0 -151 136 -151q135 0 135 151v76h-271v-76z" />
    <glyph glyph-name="ML_O.medi1" unicode="&#xf30d;" horiz-adv-x="790" 
d="M313 513q0 -151 136 -151q135 0 135 151v76h-271v-76zM820 719v-130h-182v-153q0 -141 -124 -182q-33 -11 -65 -44q-33 34 -61 43q-128 41 -128 183v153h-152v-162q0 -90 40 -130h-108q-40 41 -40 130v292h820z" />
    <glyph glyph-name="ML_O.fina1" unicode="&#xf30e;" horiz-adv-x="560" 
d="M0 436v348q0 201.893 215 271q28 9 61 43q32 -33 66 -44q209 -68 209 -270v-195h-54v141q0 99 -68 157.5t-152 58.5q-92 0 -157.5 -58t-65.5 -169h324v-283q0 -142 -123 -182q-33 -11 -65 -44q-33 35 -61 44q-129 40 -129 182zM54 514q0 -151 135 -151t135 151v75h-270
v-75z" />
    <glyph glyph-name="ML_O.fina" unicode="&#xf30f;" horiz-adv-x="381" 
d="M378 436q0 -141 -124 -182q-33 -11 -65 -44q-33 34 -61 43q-128 41 -128 183v283h378v-283zM53 513q0 -151 136 -151q135 0 135 151v76h-271v-76z" />
    <glyph glyph-name="ML_OE.medi2" unicode="&#xf310;" horiz-adv-x="1090" 
d="M313 513q0 -151 136 -151q135 0 135 151v76h-271v-76zM638 589v-153q0 -141 -124 -182q-33 -11 -65 -44q-33 34 -61 43q-128 41 -128 183v153h-152v-162q0 -90 40 -130h-108q-40 41 -40 130v292h1120v-130h-240q0 -205 25 -282q22.3965 -65.7771 116 -177q30 -36 34 -76
q2 -17 -1 -32q-43.7242 77.1603 -111.5 122.5q-72.5 48.5 -123.5 141.5q-49 92.113 -49 303h-132z" />
    <glyph glyph-name="ML_OE.fina1" unicode="&#xf311;" horiz-adv-x="780" 
d="M616 589h-238v-153q0 -141 -124 -182q-33 -11 -65 -44q-33 34 -61 43q-128 41 -128 183v283h642q40 0 85 -66q44 -65 44 -172q-1 -122 -43 -162h-112q91 49 91 162q0 108 -91 108zM53 513q0 -151 136 -151q135 0 135 151v76h-271v-76z" />
    <glyph glyph-name="ML_EE.isol" unicode="&#xf312;" horiz-adv-x="1330" 
d="M496 719h689q40 0 85 -66q44 -65 44 -172q-1 -122 -43 -162h-112q91 49 91 162q0 108 -91 108h-371q0 -155 17 -211q32 -107 89 -176q44 -54 85 -40q44 16 42 80q80 -46 21 -136q-31 -48 -97 -46q-4 -57 -52 -91q24 117 -15 192q-18 34 -69.5 89t-76.5 97q-52 87 -52 242
h-152v-162q0 -89 40 -130h-108q-40 41 -40 130v286.5q0 171.5 -140 172.5q-81 0 -148 -80q-101 -120 -146 -51q51 1 102 93q34 67 53 91q9 11 39 43t101 32q105 1 160.5 -81q54.5 -82 54.5 -193v-21z" />
    <glyph glyph-name="ML_EE.fina" unicode="&#xf313;" horiz-adv-x="660" 
d="M0 719h521q40 0 85 -66q44 -65 44 -172q-1 -122 -43 -162h-112q91 49 91 162q0 108 -91 108h-387q0 -155 17 -211q32 -107 89 -176q44 -54 85 -40q44 16 42 80q80 -46 21 -136q-31 -48 -97 -46q-4 -57 -52 -91q24 117 -15 192q-18 34 -69.5 89t-76.5 97q-52 87 -52 242
v130z" />
    <glyph glyph-name="ML_NA.medi" unicode="&#xf314;" horiz-adv-x="270" 
d="M188 64q1 -91 40 -130h-109q-39 40 -39 130h108zM0 719h300v-130h-192v-162q0 -90 40 -130h-108q-40 41 -40 130v292z" />
    <glyph glyph-name="ML_NA.medi2" unicode="&#xf315;" horiz-adv-x="370" 
d="M30 427v162h-30v130h30q0 206 59 302q51 83 124 141q75 61 111 125q6 -19 1 -34q-13 -41 -31 -68q-101 -148 -118 -180q-39 -73 -38 -287v-291q0 -89 40 -130h-109q-39 41 -39 130zM218 65q1 -91 40 -130h-109q-39 40 -39 130h108z" />
    <glyph glyph-name="ML_NA.medi3" unicode="&#xf316;" horiz-adv-x="270" 
d="M188 65q1 -91 40 -130h-109q-39 40 -39 130h108zM0 719h300v-130h-192v-162q0 -90 40 -130h-108q-40 41 -40 130v292z" />
    <glyph glyph-name="ML_ANG.fina" unicode="&#xf317;" horiz-adv-x="1010" 
d="M370 589q0 -198 35 -282q31 -76 116 -177q30 -36 34 -76q2 -17 -1 -32q-34 60 -111.5 122.5q-75.5 60.5 -123.5 141.5q-59 100 -59 303h-152v-162q0 -89 40 -130h-108q-40 41 -40 130v292h925q75 0 75 -76v-54q0 -260 -239 -506q-32 -33 -17 -61q14 -26 54 -26h107
q74 -1 74 -97v-75q-15 43 -65 43h-134q-100 0 -91 129q2 29 102.5 199.5q105.5 179.5 100.5 360.5q-1 33 -32 33h-490z" />
    <glyph glyph-name="ML_BA.fina" unicode="&#xf318;" horiz-adv-x="610" 
d="M515 714q1 126 -73.5 179t-165.5 53t-156.5 -58t-65.5 -158v-11h324v-283q0 -142 -123 -182q-33 -11 -65 -44q-33 34 -61 43q-129 41 -129 183v348q0 202 215 271q28 9 61 43q31 -33 65 -44q239 -72 239 -321v-228q0 -257 -193 -426q-24 -21 -13 -52t47 -31h107
q74 -1 74 -97v-75q-15 43 -65 43h-134q-100 0 -91 129q2 30 102.5 165t100.5 312v241zM54 513q1 -151 135.5 -151t134.5 151v76h-270v-76z" />
    <glyph glyph-name="ML_PA.fina" unicode="&#xf319;" horiz-adv-x="600" 
d="M508 730q0 98 -68.5 157t-162.5 59q-91 0 -156.5 -58t-65.5 -158v-11h324v-283q0 -142 -123 -182q-34 -11 -66 -44q-30 32 -60 43q-8 3 -27 13.5t-22 10.5q-27 0 -32 -72q-5 -74 56 -74h45q76 -1 74 -97v-75q-15 43 -65 43h-72q-108 0 -86 129q21 125 22 135v76
q0 1 -4 12q-5 11 -5 12q0 43 38 41q19 -1 56.5 -23t82.5 -22q134 1 134 152v75h-325v195q0 202 216 271q28 9 61 43q31 -33 65 -44q229 -71 229 -270v-279q0 -259 -191 -426q-24 -21 -13 -52t47 -31h107q74 -1 74 -97v-75q-15 43 -65 43h-134q-100 0 -91 129q2 30 102.5 165
t100.5 312v257z" />
    <glyph glyph-name="ML_GA.medi" unicode="&#xf31a;" horiz-adv-x="528" 
d="M178 70q1 -91 40 -130h-109q-39 40 -39 130h108zM438 70q1 -91 40 -130h-109q-39 40 -39 130h108zM550 719v-130h-182v-162q0 -90 40 -130h-108q-40 41 -40 130v162h-152v-162q0 -90 40 -130h-108q-40 41 -40 130v292h550z" />
    <glyph glyph-name="ML_GA.fina2" unicode="&#xf31b;" horiz-adv-x="590" 
d="M178 70q1 -91 40 -130h-109q-39 40 -39 130h108zM438 70q1 -91 40 -130h-109q-39 40 -39 130h108zM260 589h-152v-162q0 -90 40 -130h-108q-40 41 -40 130v292h260.015q2.985 208 58.985 302q48 81 124 141q73 58 111 125q6 -19 1 -34q-13 -41 -31 -68
q-110 -165 -118 -180q-38 -71 -38 -287v-291q0 -89 40 -130h-109q-39 41 -39 130v162z" />
    <glyph glyph-name="ML_GA.fina" unicode="&#xf31c;" horiz-adv-x="540" 
d="M260 589h-152v-162q0 -90 40 -130h-108q-40 41 -40 130v292h260.015q2.985 208 58.985 302q48 81 124 141q73 58 111 125q6 -19 1 -34q-13 -41 -31 -68q-110 -165 -118 -180q-39 -71 -38 -287v-291q0 -89 40 -130h-109q-39 41 -39 130v162z" />
    <glyph glyph-name="ML_QA.init1" unicode="&#xf31e;" horiz-adv-x="390" 
d="M205 362v-152q-15 16 -71 47q-134 73 -134 267v239q0 238 163 292q27 9 60 43q32 -33 66 -44q160 -55 160 -291v-174h-59v120q0 237 -166 237q-170 1 -170 -227v-130q0 -201 151 -227z" />
    <glyph glyph-name="ML_GA.fina1" unicode="&#xf31f;" horiz-adv-x="740" 
d="M635 16q74 -1 74 -97v-75q-15 43 -65 43h-134q-100 0 -91 129q2 29 105.5 199.5t97.5 340.5q-1 33 -32 33h-480q0 -237 36 -287q3 -4 118 -180q32 -49 31 -68q-1 -16 -1 -32q-32 59 -111.5 122.5q-75.5 60.5 -123.5 141.5q-59 100 -59 303v130h655q75 0 75 -76v-54
q0 -247 -239 -486q-32 -32 -16.5 -60.5q14.5 -26.5 53.5 -26.5h107z" />
    <glyph glyph-name="ML_MA.medi" unicode="&#xf320;" horiz-adv-x="260" 
d="M7 1074q-118.459 0 -17 -112q77 -85 96 -243h204v-130h-182v-162q0 -90 40 -130h-108q-40 40 -40 130v284q-1 115 -50.5 223q-51.5 112 -51.5 141v15q2 112 91 113h90q50 0 65 43v-75q2 -97 -74 -97h-63z" />
    <glyph glyph-name="ML_MA.fina" unicode="&#xf321;" horiz-adv-x="320" 
d="M6 1075q-100.677 -1.02 -36 -87q84 -113 83 -269h28q2 131 42 197q51 85 112 142q65 60 101 124q5 -17 1 -33q-10 -36 -31 -68q-115 -174 -118 -181q-25 -54 -26 -181v-291q1 -90 40 -130h-108q-40 40 -40 130v161h-54v129q-10 109 -56 214q-45 105 -46 143
q-6 129 90 129h166q49 0 64 43v-75q2 -90 -74 -97h-138z" />
    <glyph glyph-name="ML_LA.medi" unicode="&#xf322;" horiz-adv-x="260" 
d="M14 1074q-73 1 -73 97v75q15 -43 65 -43h110q93 -1 90 -128q-1 -39 -55 -143.5t-66 -212.5h205v-130h-182v-162q0 -90 40 -130h-108q-40 41 -40 130v292h13q0 113 135 286q49 63 -50 69h-84z" />
    <glyph glyph-name="ML_LA.fina" unicode="&#xf323;" horiz-adv-x="230" 
d="M-44 1076q-47 0 -65 42q-15 37 -8 130q15 -44 64 -43h200q97.24 -2.03 90 -128q-3 -44 -58 -199.5q-54 -151.5 -58 -332.5v-118q0 -90 40 -130h-108q-40 40 -40 130v162h-13v130h44q35 129 121 270q52 86 -37 87h-172z" />
    <glyph glyph-name="ML_SA.medi" unicode="&#xf324;" horiz-adv-x="580" 
d="M108 427q0 -90 40 -130h-108q-40 41 -40 130v292h49q32 212 122 331q31 41 67 50q47 11 71 56q52 -91 80 -437h221v-130h-174v-162q0 -90 40 -130h-108q-40 40 -40 130q0 482 -33 544q-77.118 -12.677 -120 -77q-67 -100 -67 -279v-188z" />
    <glyph glyph-name="ML_SA.fina" unicode="&#xf325;" horiz-adv-x="650" 
d="M107 427q0 -90 40 -130h-108q-39 41 -39 130v292h41q23 172 129 312q31 41 67 49q47 11 71 56q82 -128 98 -474q8.524 63.539 67 161q6 10 48 88q46 86 48 164q49 -17 74 -70.5q30 -66.5 -13 -117.5q-185 -221 -185 -385v-75q0 -90 40 -130h-108q-40 40 -40 130
q0 453 -43 534q-70 -13 -120 -87q-67 -98 -67 -259v-188z" />
    <glyph glyph-name="ML_SA.fina1" unicode="&#xf326;" horiz-adv-x="650" 
d="M107 427q0 -90 40 -130h-108q-39 41 -39 130v292h41q23 172 129 312q31 41 67 49q47 11 71 56q82 -128 98 -474q8.524 63.539 67 161q6 10 48 88q46 86 48 164q49 -17 74 -70.5q30 -66.5 -13 -117.5q-185 -221 -185 -385v-75q0 -90 40 -130h-108q-40 40 -40 130
q0 453 -43 534q-70 -13 -120 -87q-67 -98 -67 -259v-188z" />
    <glyph glyph-name="ML_SA.fina2" unicode="&#xf327;" horiz-adv-x="860" 
d="M466 589v-162q0 -90 40 -130h-108q-40 40 -40 130q0 455 -63 574q-72 -12 -120 -77q-67 -91 -67 -309v-188q0 -90 40 -130h-108q-40 41 -40 130v292h49q46.8935 261.666 122 361q31 41 67 50q47 11 71 56q81 -91 110 -467h292q40 0 85 -66q44 -65 44 -172
q-1 -122 -43 -162h-112q91 49 91 162q0 108 -91 108h-219z" />
    <glyph glyph-name="ML_SHA.medi" unicode="&#xf328;" horiz-adv-x="580" 
d="M108 427q0 -90 40 -130h-108q-40 41 -40 130v292h49q32 212 122 331q31 41 67 50q47 11 71 56q52 -91 80 -437h221v-130h-174v-162q0 -90 40 -130h-108q-40 40 -40 130q0 471 -39 544q-84 -13 -124 -77q-57 -93 -57 -279v-188zM116 1453h108q1 -66 39 -130h-108
q-39 41 -39 130zM380 1453h108q1 -66 39 -130h-108q-39 41 -39 130z" />
    <glyph glyph-name="ML_SHA.fina" unicode="&#xf329;" horiz-adv-x="640" 
d="M107 427q0 -90 40 -130h-108q-39 41 -39 130v292h41q23 172 129 312q31 41 67 49q47 11 71 56q82 -128 98 -474q8.524 63.539 67 161q6 10 48 88q46 86 48 164q49 -17 74 -70.5q30 -66.5 -13 -117.5q-185 -221 -185 -385v-75q0 -90 40 -130h-108q-40 40 -40 130
q0 453 -43 534q-70 -13 -120 -87q-67 -98 -67 -259v-188zM196 1453h108q1 -66 39 -130h-108q-39 41 -39 130zM450 1453h108q1 -66 39 -130h-108q-39 41 -39 130z" />
    <glyph glyph-name="ML_TA.init" unicode="&#xf32a;" horiz-adv-x="584" 
d="M0 873q0 142 128 183q28 9 61 43q32 -33 65 -44q124 -41 124 -182v-154h236v-130h-182v-162q0 -89 40 -130h-108q-40 41 -40 130v162h-178q-121 0 -122 -108h-24v392zM53 796v-77h271v77q0 151 -135 151q-136 0 -136 -151z" />
    <glyph glyph-name="ML_TA.fina" unicode="&#xf32b;" 
d="M432 589v-162q0 -89 40 -130h-108q-40 41 -40 130v162h-178q-121 0 -122 -108h-24v392q0 142 128 183q28 9 61 43q32 -33 65 -44q124 -41 124 -182v-154h287q40 0 85 -66q44 -65 44 -172q-1 -122 -43 -162h-112q91 49 91 162q0 108 -91 108h-207zM53 796v-77h271v77
q0 151 -135 151q-136 0 -136 -151z" />
    <glyph glyph-name="ML_DA.medi" unicode="&#xf32c;" horiz-adv-x="820" 
d="M53 513q0 -151 136 -151q135 0 135 151v76h-271v-76zM850 719v-130h-182v-162q0 -90 40 -130h-108q-40 41 -40 130v162h-182v-153q0 -141 -124 -182q-33 -11 -65 -44q-33 34 -61 43q-128 41 -128 183v283h850z" />
    <glyph glyph-name="ML_DA.fina" unicode="&#xf32d;" horiz-adv-x="840" 
d="M53 513q0 -151 136 -151q135 0 135 151v76h-271v-76zM0 719h560v-1q0 203 59 303q51 83 124 141q75 61 111 125q6 -19 1 -34q-13 -41 -31 -68q-101 -148 -118 -180q-38 -73 -38 -287v-291q0 -89 40 -130h-109q-39 41 -39 130v162h-182v-153q0 -141 -124 -182
q-33 -11 -65 -44q-33 34 -61 43q-128 41 -128 183v283z" />
    <glyph glyph-name="ML_DA.fina1" unicode="&#xf32e;" horiz-adv-x="780" 
d="M108 589q0 -156 13 -227q10 5 31.5 15.5t31.5 15.5q119 57 206 -37q24 -26 67 -40q-17 -44 -12 -73q19 -129 -94 -189q-40 -21 -49 -99t-34 -94q7 44 -11 93t-42 84.5t-72 101t-74 104.5q-69 105 -69 345v130h645q40 0 85 -66q44 -65 44 -172q-1 -122 -43 -162h-112
q91 49 91 162q0 108 -91 108h-511zM137 310q-3 -2 31 -76q62 -121 103 -158q121 74 69 184q-58 119 -203 50z" />
    <glyph glyph-name="ML_CHA.medi" unicode="&#xf32f;" horiz-adv-x="580" 
d="M267 264q-93 0 -122 -119h-14q-29 205 -150 227v11q407 0 406 0q-30 83 -34 206h-353v130h610v-130h-193q1 -173 48 -242l-68 -117q-20 34 -73 34h-57z" />
    <glyph glyph-name="ML_CHA.fina" unicode="&#xf330;" horiz-adv-x="780" 
d="M635 719q40 0 85 -66q44 -65 44 -172q-1 -122 -43 -162h-112q91 49 91 162q0 108 -91 108h-213q1 -173 48 -242l-68 -117q-20 34 -73 34h-57q-93 0 -122 -119h-14q-29 205 -150 227v11h406q-30 83 -34 206h-333v130h636z" />
    <glyph glyph-name="ML_JA.medi" unicode="&#xf331;" horiz-adv-x="480" 
d="M100 314q85 -1 129.5 48.5q39.5 43.5 39.5 150.5v76h-269v130h510v-130h-187v-153q0 -202 -158 -230q-28 -5 -65 -44q-12 12 -33 29t-25 21q-21 23 -27 59.5t-9 42.5h94z" />
    <glyph glyph-name="ML_JA.fina" unicode="&#xf332;" horiz-adv-x="660" 
d="M259 589h-259v130h521q40 0 85 -66q44 -65 44 -172q-1 -122 -43 -162h-112q91 49 91 162q0 108 -91 108h-182v-153q0 -202 -158 -230q-28 -5 -65 -44q-12 12 -33 29t-25 21q-21 23 -27 59.5t-9 42.5h94q85 -1 129.5 48.5q39.5 43.5 39.5 150.5v76z" />
    <glyph glyph-name="ML_RA.fina" unicode="&#xf333;" horiz-adv-x="550" 
d="M7 253q60 72 131 223q-75 113 -118 113h-20v130h67q0 91 47 176q46 83 115 111q40 16 76 64q39 -50 86 -67q109 -39 141 -164q34 -137 -6 -178q-1 -1 -21 -1h-17q-7 240 -182 242q-75 1 -128 -62q-54 -65 -53 -165q1 -70 36 -125q21 -33 70.5 -92.5t72.5 -96.5
q62 -102 61.5 -179t-54.5 -133h-100q35 62 37 126q4 121 -74 247q-23 -163 -95 -273z" />
    <glyph glyph-name="ML_FA.fina" unicode="&#xf334;" horiz-adv-x="620" 
d="M119 131q33 0 49.5 41t-10.5 89q29 -5 41 -30q26 -52 29 -102q6 -129 -90 -129h-73q-51 0 -65 -42v75q-2 97 74 98h45zM520 714q1 126 -73.5 179t-168 53t-159 -58t-65.5 -158v-11h324v-283q0 -142 -123 -182q-33 -11 -65 -44q-33 34 -61 43q-129 41 -129 183v348
q0 202 215 271q28 9 61 43q31 -33 65 -44q244 -77 244 -303v-226q0 -257 -193 -426q-24 -21 -13 -52t47 -31h107q74 -1 74 -97v-75q-15 43 -65 43h-134q-100 0 -91 129q2 30 102.5 165t100.5 312v221zM54 513q1 -151 135.5 -151t134.5 151v76h-270v-76z" />
    <glyph glyph-name="ML_KA.fina" unicode="&#xf335;" horiz-adv-x="490" 
d="M267 -12h108q73 1 73 -97v-75q-15 42 -65 42h-134q-93 1 -90 129q1 40 87 172q109 169 121 204q43 125 43 186v161q0 237 -177 237q-179 1 -179 -227v-130q0 -131 23 -162q85 -113 85 -162h-107q-1 28 -28 114q-31 -63 -30 -189h-107q-4 139 120 251q-10 43 -10 83v239
q0 237 172 292q28 9 61 43q32 -33 66 -43q170 -50 170 -292v-204q0 -247 -239 -486q-32 -32 -16 -60q14 -26 53 -26z" />
    <glyph glyph-name="ML_KHA.fina" unicode="&#xf336;" horiz-adv-x="470" 
d="M267 -3h107q74 0 74 -98v-75q-15 43 -65 43h-134q-97 2 -91 129q2 40 88 172q109 169 121 204q43 126 43 187v150q0 237 -177 237q-179 1 -179 -227h173v-130h-173q0 -131 23 -162q85 -115 85 -162h-107q-4 29 -27.5 112.5q-27.5 97.5 -27.5 146.5v238q0 238 172 293
q28 9 61 43q31 -33 65 -44q171 -56 171 -292v-193q0 -246 -239 -486q-32 -32 -16.5 -60q14.5 -26 53.5 -26z" />
    <glyph glyph-name="ML_TSA.medi" unicode="&#xf337;" horiz-adv-x="790" 
d="M347 383q-30 83 -34 206h-313v130h820v-130h-443q1 -154 47 -241q58 -110 92 -110q58 -1 58 53q1 54 -58 55q-41 1 -55 13q-11 9 -28 59q-7 21 -11 28q17 -8 73 -1q172 21 172 -133q0 -138 -138 -146q-71 -4 -114 65q-20 32 -73 34h-105q-92 0 -123 -119h-13
q-29 204 -151 227v10h397z" />
    <glyph glyph-name="ML_TSA.fina" unicode="&#xf338;" horiz-adv-x="1000" 
d="M347 383q-30 83 -34 206h-313v130h871q40 0 85 -66q44 -65 44 -172q-1 -122 -43 -162h-112q91 49 91 162q0 108 -91 108h-468q1 -154 47 -241q58 -110 92 -110q58 -1 58 53q1 54 -58 55q-41 1 -55 13q-11 9 -28 59q-7 21 -11 28q17 -8 73 -1q172 21 172 -133
q0 -138 -138 -146q-71 -4 -114 65q-20 32 -73 34h-105q-92 0 -123 -119h-13q-29 204 -151 227v10h397z" />
    <glyph glyph-name="ML_ZA.medi" unicode="&#xf339;" horiz-adv-x="740" 
d="M322 265h-86q-91 0 -122 -119h-14q-28 204 -150 226v11h396q-30 82 -34 206h-312v130h770v-130h-394q0.821 -92.812 28 -193q51 -188 109 -192q26 -2 58 32q36 39 51 34l-0.5 -15.5q-0.5 -9.5 -0.5 -14.5q-8 0 -42.5 -51t-74.5 -51q-25 0 -44 16.5t-36.5 44t-28.5 37.5
q-31 28 -73 29z" />
    <glyph glyph-name="ML_ZA.fina" unicode="&#xf33a;" horiz-adv-x="960" 
d="M825 719q40 0 85 -66q44 -65 44 -172q-1 -122 -43 -162h-112q91 49 91 162q0 109 -91 108h-423q1 -112 28 -193q63 -188 109 -192q26 -2 58 32q36 39 51 34l-0.5 -15.5q-0.5 -9.5 -0.5 -14.5q-8 0 -42.5 -51t-74.5 -51q-25 0 -44 16.5t-36.5 44t-28.5 37.5q-31 28 -73 29
h-86q-91 0 -122 -119h-14q-28 204 -150 226v11h396q-30 82 -34 206h-312v130h825z" />
    <glyph glyph-name="ML_HAA.fina" unicode="&#xf33b;" horiz-adv-x="810" 
d="M655 589h-385q0 -143 74 -240q14 -18 57 -58t64.5 -78t21.5 -97t-48 -113q-80 -88 -83 -103q-7 -33 -39 -46q17 103 -19 179q-20 43 -211 253q-87 96 -87 303v130h107v-130q0 -168 29.5 -221.5t103 -155t92.5 -140.5q41 13 47.5 75.5t-77.5 174t-85 267.5v130h464
q40 0 85 -66q44 -65 44 -172q-1 -122 -43 -162h-112q91 49 91 162q0 108 -91 108z" />
    <glyph glyph-name="ML_ZRA.fina" unicode="&#xf33c;" horiz-adv-x="940" 
d="M508 589v-162q0 -89 40 -129h-108q-40 40 -40 129v162h-140v130h140v32q0 242 -172 242q-182 0 -182 -250v-105q0 -152 95 -247q94 -94 93 -155h-124q0 25 -68 167q-42 89 -42 214v129q0 299 229 300q217 0 217 -294v-33h359q40 0 85 -66q44 -65 44 -172
q-1 -122 -43 -162h-112q91 49 91 162q0 108 -91 108h-271z" />
    <glyph glyph-name="ML_LHA.medi" unicode="&#xf33d;" horiz-adv-x="788" 
d="M6 1074q-93 0 -37 -87q64 -98 90 -268h308v-130q0 -168 29.5 -221.5t103 -155t92.5 -140.5q41 13 47.5 75.5t-77.5 174t-85 267.5v130h341v-130h-288q0 -143 74 -240q14 -18 57 -58t64.5 -78t21.5 -97t-48 -113q-80 -88 -83 -103q-7 -33 -39 -46q17 103 -19 179
q-20 43 -211 253q-87 96 -87 303h-153v-162q0 -90 40 -130h-108q-40 40 -40 130v284q-1 115 -50.5 223q-51.5 112 -51.5 141v15q2 112 91 113h130q50 0 65 43v-75q2 -97 -74 -97h-103z" />
    <glyph glyph-name="ML_I.medi" unicode="&#xf361;" horiz-adv-x="320" 
d="M285 54q2 -17 -1 -32q-34 60 -111.5 122.5q-83.5 66.5 -123.5 141.5q-49 91 -49 303v130h340v-130h-230q0 -200 25 -282q19 -61 116 -177q30 -36 34 -76z" />
    <glyph glyph-name="ML_I.fina1" unicode="&#xf362;" horiz-adv-x="580" 
d="M441 719q40 0 85 -66q44 -65 44 -172q-1 -122 -43 -162h-112q91 49 91 162q0 108 -91 108h-305q0 -198 35 -282q31.5 -75.6 116 -177q30 -36 34 -76q2 -17 -1 -32q-32 57 -111.5 122.5q-75.5 60.5 -123.5 141.5q-59 100 -59 303v130h441z" />
    <glyph glyph-name="ML_LHA.init" unicode="&#xf396;" horiz-adv-x="1170" 
d="M627 1072h-168q-34 0 -50 -41.5t11 -89.5q75 -69 75 -176v-46h264v-130q0 -168 29.5 -221.5t103 -155t92.5 -140.5q41 13 47.5 75.5t-77.5 174t-85 267.5v130h331v-130h-278q0 -143 74 -240q14 -18 57 -58t64.5 -78t21.5 -97t-48 -113q-80 -88 -83 -103q-7 -33 -39 -46
q17 103 -19 179q-20 43 -211 253q-87 96 -87 303h-124v-162q0 -89 40 -129h-109q-39 40 -39 129v286q0 137 -141 136q-73 0 -137.5 -77.5t-83.5 -82.5q-50 -14 -73 29q44 1 102 103q4 7 23 42q54 100 110 120q81 27 159 -12q-27 52 -29 102q-6 128 90 128h196q50 0 65 44
v-75q3 -97 -74 -98z" />
    <glyph glyph-name="ML_DA.init" unicode="&#xf397;" horiz-adv-x="584" 
d="M0 873q0 142 128 183q28 9 61 43q32 -33 65 -44q124 -41 124 -182v-154h236v-130h-182v-162q0 -89 40 -130h-108q-40 41 -40 130v162h-178q-121 0 -122 -108h-24v392zM53 796v-77h271v77q0 151 -135 151q-136 0 -136 -151z" />
    <glyph glyph-name="ML_I.medi2" unicode="&#xf398;" horiz-adv-x="600" 
d="M630 719v-130h-230q0 -209 25 -282q22 -66 116 -177q30 -36 34 -76q2 -17 -1 -32q-34 60 -111.5 122.5q-83.5 66.5 -123.5 141.5q-49 91 -49 303h-180q0 -206 25 -282q27 -82 106 -177q30 -36 34 -76q2 -17 -1 -32q-21 37 -111.5 122.5q-79.5 74.5 -113.5 141.5
q-49 97 -49 303v130h630z" />
    <glyph glyph-name="ML_ZRA.medi" unicode="&#xf39f;" horiz-adv-x="660" 
d="M446 719h244v-130h-182v-162q0 -89 40 -129h-108q-40 40 -40 129v162h-140v130h140v32q0 242 -172 242q-182 0 -182 -250v-105q0 -152 95 -247q94 -94 93 -155h-124q0 25 -68 167q-42 89 -42 214v129q0 299 229 300q217 0 217 -294v-33z" />
    <glyph glyph-name="ML_NA.init1" unicode="&#xf3a0;" horiz-adv-x="679" 
d="M-14 755q51 1 102 93q34 67 53 91q9 11 39 43t101 32q105 1 160.5 -81q54.5 -82 54.5 -193v-21h214v-130h-182v-162q0 -89 40 -130h-108q-40 41 -40 130v286.5q0 171.5 -140 172.5q-81 0 -148 -80q-101 -120 -146 -51z" />
    <glyph glyph-name="ML_E.medi" unicode="&#xf3a1;" horiz-adv-x="260" 
d="M0 719h290v-130h-182v-162q0 -90 40 -130h-108q-40 41 -40 130v292z" />
    <glyph glyph-name="ML_E.fina" unicode="&#xf3a2;" horiz-adv-x="320" 
d="M30 427v162h-30v130h30q0 206 59 302q51 83 124 141q75 61 111 125q6 -19 1 -34q-13 -41 -31 -68q-101 -148 -118 -180q-39 -73 -38 -287v-291q0 -89 40 -130h-109q-39 41 -39 130z" />
    <glyph glyph-name="ML_E.fina1" unicode="&#xf3a3;" horiz-adv-x="400" 
d="M295 16q74 -1 74 -97v-75q-15 43 -65 43h-134q-100 0 -91 129q2 29 105.5 199.5t97.5 340.5q-1 33 -32 33h-147v130h212q75 0 75 -76v-54q0 -247 -239 -486q-32 -32 -16.5 -60.5q14.5 -26.5 53.5 -26.5h107z" />
    <glyph glyph-name="ML_UE.medi" unicode="&#xf3a5;" horiz-adv-x="530" 
d="M0 719h560v-130h-182v-153q0 -141 -124 -182q-33 -11 -65 -44q-33 34 -61 43q-128 41 -128 183v283zM53 513q0 -151 136 -151q135 0 135 151v76h-271v-76z" />
    <glyph glyph-name="ML_UE.medi1" unicode="&#xf3a6;" horiz-adv-x="830" 
d="M860 719v-130h-240q0 -200 25 -282q19 -61 116 -177q30 -36 34 -76q2 -17 -1 -32q-34 60 -111.5 122.5q-83.5 66.5 -123.5 141.5q-49 91 -49 303h-132v-153q0 -141 -124 -182q-33 -11 -65 -44q-33 34 -61 43q-128 41 -128 183v283h860zM53 513q0 -151 136 -151
q135 0 135 151v76h-271v-76z" />
    <glyph glyph-name="ML_UE.medi2" unicode="&#xf3a7;" horiz-adv-x="1090" 
d="M313 513q0 -151 136 -151q135 0 135 151v76h-271v-76zM638 589v-153q0 -141 -124 -182q-33 -11 -65 -44q-33 34 -61 43q-128 41 -128 183v153h-152v-162q0 -90 40 -130h-108q-40 41 -40 130v292h1120v-130h-240q0 -205 25 -282q22.3965 -65.7771 116 -177q30 -36 34 -76
q2 -17 -1 -32q-43.7242 77.1603 -111.5 122.5q-72.5 48.5 -123.5 141.5q-49 92.113 -49 303h-132z" />
    <glyph glyph-name="ML_UE.fina" unicode="&#xf3a8;" horiz-adv-x="560" 
d="M0 436v348q0 201.893 215 271q28 9 61 43q32 -33 66 -44q209 -68 209 -270v-195h-54v141q0 99 -68 157.5t-152 58.5q-91 1 -157 -57.5t-66 -169.5h324v-283q0 -142 -123 -182q-33 -11 -65 -44q-33 35 -61 44q-129 40 -129 182zM54 514q1 -151 135.5 -151t134.5 151v75
h-270v-75z" />
    <glyph glyph-name="ML_UE.fina1" unicode="&#xf3a9;" horiz-adv-x="760" 
d="M606 589h-228v-153q0 -141 -124 -182q-33 -11 -65 -44q-33 34 -61 43q-128 41 -128 183v283h632q40 0 85 -66q44 -65 44 -172q-1 -122 -43 -162h-112q91 49 91 162q0 108 -91 108zM53 513q0 -151 136 -151q135 0 135 151v76h-271v-76z" />
    <glyph glyph-name="ML_NA.medi1" unicode="&#xf3ab;" horiz-adv-x="260" 
d="M0 719h290v-130h-182v-162q0 -90 40 -130h-108q-40 41 -40 130v292z" />
    <glyph glyph-name="ML_NA.fina" unicode="&#xf3ac;" horiz-adv-x="310" 
d="M30 427v162h-30v130h30q0 206 59 302q51 83 124 141q75 61 111 125q6 -19 1 -34q-13 -41 -31 -68q-101 -148 -118 -180q-39 -73 -38 -287v-291q0 -89 40 -130h-109q-39 41 -39 130z" />
    <glyph glyph-name="ML_QA.fina" unicode="&#xf3af;" horiz-adv-x="540" 
d="M260 589h-152v-162q0 -90 40 -130h-108q-40 41 -40 130v292h260.015q2.985 208 58.985 302q48 81 124 141q73 58 111 125q6 -19 1 -34q-13 -41 -31 -68q-110 -165 -118 -180q-39 -71 -38 -287v-291q0 -89 40 -130h-109q-39 41 -39 130v162z" />
    <glyph glyph-name="ML_QA.medi" unicode="&#xf3b0;" horiz-adv-x="520" 
d="M550 719v-130h-182v-162q0 -90 40 -130h-108q-40 41 -40 130v162h-152v-162q0 -90 40 -130h-108q-40 41 -40 130v292h550z" />
    <glyph glyph-name="ML_I.medi1" unicode="&#xf3b1;" horiz-adv-x="550" 
d="M580 719v-130h-240q0 -194.792 25 -282q17 -59 116 -177q30 -36 34 -76q2 -17 -1 -32q-45 80 -118.432 127.456q-70.0251 45.2538 -116.568 136.544q-49 96 -49 303h-122v-162q0 -89 40 -130h-108q-40 41 -40 130v292h580z" />
    <glyph glyph-name="ML_O.init" unicode="&#xf3b2;" horiz-adv-x="1210" 
d="M734 513q0 -151 136 -151q135 0 135 151v76h-271v-76zM1240 719v-130h-181v-153q0 -141 -124 -182q-33 -11 -65 -44q-33 34 -61 43q-128 41 -128 183v153h-153v-162q0 -89 40 -130h-108q-40 41 -40 130v286.5q0 171.5 -140 172.5q-81 0 -148 -80q-101 -120 -146 -51
q51 1 102 93q34 67 53 91q9 11 39 43t101 32q105 1 160.5 -81q54.5 -82 54.5 -193v-21h744z" />
    <glyph glyph-name="ML_U.init" unicode="&#xf3b3;" horiz-adv-x="1210" 
d="M734 513q0 -151 136 -151q135 0 135 151v76h-271v-76zM1240 719v-130h-181v-153q0 -141 -124 -182q-33 -11 -65 -44q-33 34 -61 43q-128 41 -128 183v153h-153v-162q0 -89 40 -130h-108q-40 41 -40 130v286.5q0 171.5 -140 172.5q-81 0 -148 -80q-101 -120 -146 -51
q51 1 102 93q34 67 53 91q9 11 39 43t101 32q105 1 160.5 -81q54.5 -82 54.5 -193v-21h744z" />
    <glyph glyph-name="ML_U.medi" unicode="&#xf3b4;" horiz-adv-x="530" 
d="M0 719h560v-130h-182v-153q0 -141 -124 -182q-33 -11 -65 -44q-33 34 -61 43q-128 41 -128 183v283zM53 513q0 -151 136 -151q135 0 135 151v76h-271v-76z" />
    <glyph glyph-name="ML_U.medi1" unicode="&#xf3b5;" horiz-adv-x="530" 
d="M0 719h560v-130h-182v-153q0 -141 -124 -182q-33 -11 -65 -44q-33 34 -61 43q-128 41 -128 183v283zM53 513q0 -151 136 -151q135 0 135 151v76h-271v-76z" />
    <glyph glyph-name="ML_U.medi2" unicode="&#xf3b6;" horiz-adv-x="790" 
d="M313 513q0 -151 136 -151q135 0 135 151v76h-271v-76zM820 719v-130h-182v-153q0 -141 -124 -182q-33 -11 -65 -44q-33 34 -61 43q-128 41 -128 183v153h-152v-162q0 -90 40 -130h-108q-40 41 -40 130v292h820z" />
    <glyph glyph-name="ML_U.fina" unicode="&#xf3b7;" horiz-adv-x="560" 
d="M0 436v348q0 201.893 215 271q28 9 61 43q32 -33 66 -44q209 -68 209 -270v-195h-54v141q0 99 -68 157.5t-152 58.5q-91 1 -157 -57.5t-66 -169.5h324v-283q0 -142 -123 -182q-33 -11 -65 -44q-33 35 -61 44q-129 40 -129 182zM54 514q0 -151 135 -151t135 151v75h-270
v-75z" />
    <glyph glyph-name="ML_UE.init" unicode="&#xf3b8;" horiz-adv-x="1510" 
d="M734 513q0 -151 136 -151q135 0 135 151v76h-271v-76zM1059 589v-153q0 -141 -124 -182q-33 -11 -65 -44q-33 34 -61 43q-128 41 -128 183v153h-153v-162q0 -89 40 -130h-108q-40 41 -40 130v286.5q0 171.5 -140 172.5q-81 0 -148 -80q-101 -120 -146 -51q51 1 102 93
q34 67 53 91q9 11 39 43t101 32q105 1 160.5 -81q54.5 -82 54.5 -193v-21h1044v-130h-240q0 -204.58 25 -282q21 -64 116 -177q30 -36 34 -76q2 -17 -1 -32q-21.525 37.9853 -111.5 122.5q-67.5 63.5 -113.5 141.5q-59 100 -59 303h-131z" />
    <glyph glyph-name="ML_OE.medi1" unicode="&#xf3b9;" horiz-adv-x="830" 
d="M860 719v-130h-240q0 -200 25 -282q19 -61 116 -177q30 -36 34 -76q2 -17 -1 -32q-34 60 -111.5 122.5q-83.5 66.5 -123.5 141.5q-49 91 -49 303h-132v-153q0 -141 -124 -182q-33 -11 -65 -44q-33 34 -61 43q-128 41 -128 183v283h860zM53 513q0 -151 136 -151
q135 0 135 151v76h-271v-76z" />
    <glyph glyph-name="ML_OE.medi" unicode="&#xf3ba;" horiz-adv-x="570" 
d="M0 719h600v-130h-222v-153q0 -142 -124 -182q-33 -11 -65 -44q-33 34 -61 43q-128 41 -128 183v283zM53 513q0 -151 136 -151q135 0 135 151v76h-271v-76z" />
    <glyph glyph-name="ML_OE.fina" unicode="&#xf3bb;" horiz-adv-x="560" 
d="M0 436v348q0 201.893 215 271q28 9 61 43q32 -33 66 -44q209 -68 209 -270v-195h-54v141q0 99 -68 157.5t-152 58.5q-91 1 -157 -57.5t-66 -169.5h324v-283q0 -142 -123 -182q-33 -11 -65 -44q-33 35 -61 44q-129 40 -129 182zM54 514q0 -151 135 -151t135 151v75h-270
v-75z" />
    <glyph glyph-name="ML_UE.init1" unicode="&#xf3bc;" horiz-adv-x="1210" 
d="M733 513q0 -151 136 -151q135 0 135 151v76h-271v-76zM1240 719v-130h-182v-153q0 -141 -124 -182q-33 -11 -65 -44q-33 34 -61 43q-128 41 -128 183v153h-153v-162q0 -89 40 -130h-108q-40 41 -40 130v286.5q0 171.5 -140 172.5q-81 0 -148 -80q-101 -120 -146 -51
q51 1 102 93q34 67 53 91q9 11 39 43t101 32q105 1 160.5 -81q54.5 -82 54.5 -193v-21h745z" />
    <glyph glyph-name="ML_EE.init" unicode="&#xf3bd;" horiz-adv-x="1150" 
d="M1180 719v-130h-392q0 -155 17 -211q32 -107 89 -176q44 -54 85 -40q44 16 42 80q80 -46 21 -136q-31 -48 -97 -46q-4 -57 -52 -91q24 117 -15 192q-18 34 -69.5 89t-76.5 97q-52 87 -52 242h-152v-162q1 -90 40 -130h-108q-40 41 -40 130v286.5q0 171.5 -140 172.5
q-81 0 -148 -80q-101 -120 -146 -51q51 1 102 93q34 67 53 91q9 11 39 43t101 32q105 1 160.5 -81t54.5 -193v-21h684z" />
    <glyph glyph-name="ML_EE.medi" unicode="&#xf3be;" horiz-adv-x="460" 
d="M265 60q-4 -57 -52 -91q24 117 -15 192q-18 34 -69.5 89t-76.5 97q-52 87 -52 242v130h490v-130h-382q0 -155 17 -211q32 -107 89 -176q44 -54 85 -40q44 16 42 80q80 -46 21 -136q-31 -48 -97 -46z" />
    <glyph glyph-name="ML_OE.init" unicode="&#xf3bf;" horiz-adv-x="1510" 
d="M734 513q0 -151 136 -151q135 0 135 151v76h-271v-76zM1059 589v-153q0 -141 -124 -182q-33 -11 -65 -44q-33 34 -61 43q-128 41 -128 183v153h-153v-162q0 -89 40 -130h-108q-40 41 -40 130v286.5q0 171.5 -140 172.5q-81 0 -148 -80q-101 -120 -146 -51q51 1 102 93
q34 67 53 91q9 11 39 43t101 32q105 1 160.5 -81q54.5 -82 54.5 -193v-21h1044v-130h-240q0 -204.58 25 -282q21 -64 116 -177q30 -36 34 -76q2 -17 -1 -32q-21.525 37.9853 -111.5 122.5q-67.5 63.5 -113.5 141.5q-59 100 -59 303h-131z" />
    <glyph glyph-name="ML_NA.init" unicode="&#xf3c0;" horiz-adv-x="560" 
d="M448 24q1 -91 40 -130h-109q-39 40 -39 130h108zM-134 755q51 1 102 93q34 67 53 91q9 11 39 43t101 32q105 1 160.5 -81q54.5 -82 54.5 -193v-21h214v-130h-182v-162q0 -89 40 -130h-108q-40 41 -40 130v286.5q0 171.5 -140 172.5q-81 0 -148 -80q-101 -120 -146 -51z
" />
    <glyph glyph-name="ML_ANG.medi" unicode="&#xf3c1;" horiz-adv-x="629" 
d="M464 265h-118q-9 36 -22 54q-65 91 -65 205v65h-151v-162q0 -90 40 -130h-109q-39 41 -39 130v292h259q0 233 150 281q28 9 61 43q32 -33 66 -44q147 -47 147 -270v-140h-54v86q0 216 -158 216t-158 -206v-96q0 -78 26 -132q24 -50 68 -75q29 -17 43 -48q14 -30 14 -69z
" />
    <glyph glyph-name="ML_BA.init" unicode="&#xf3c2;" horiz-adv-x="497" 
d="M0 436v348q0 201.893 215 271q28 9 61 43q32 -33 66 -44q209 -68 209 -270v-195h-54v141q0 99 -68 157.5t-152 58.5q-91 1 -157 -57.5t-66 -169.5h324v-283q0 -142 -123 -182q-33 -11 -65 -44q-33 35 -61 44q-129 40 -129 182zM54 514q0 -151 135 -151t135 151v75h-270
v-75z" />
    <glyph glyph-name="ML_BA.medi" unicode="&#xf3c3;" horiz-adv-x="497" 
d="M0 436v348q0 201.893 215 271q28 9 61 43q32 -33 66 -44q209 -68 209 -270v-195h-54v141q0 99 -68 157.5t-152 58.5q-91 1 -157 -57.5t-66 -169.5h324v-283q0 -142 -123 -182q-33 -11 -65 -44q-33 35 -61 44q-129 40 -129 182zM54 514q0 -151 135 -151t135 151v75h-270
v-75z" />
    <glyph glyph-name="ML_BA.fina1" unicode="&#xf3c4;" horiz-adv-x="752" 
d="M647 -4q74 -1 74 -97v-75q-15 43 -65 43h-134q-100 0 -91 129q2 29 102.5 199.5q105.5 179.5 100.5 360.5q-1 33 -32 33h-224v-153q0 -141 -124 -182q-33 -11 -65 -44q-33 34 -61 43q-128 41 -128 183v283h667q75 0 75 -76v-54q0 -267 -239 -506q-32 -32 -16.5 -60.5
q14.5 -26.5 53.5 -26.5h107zM53 513q0 -151 136 -151q135 0 135 151v76h-271v-76z" />
    <glyph glyph-name="ML_PA.init" unicode="&#xf3c5;" horiz-adv-x="498" 
d="M105 131h45q76 -1 74 -97v-75q-15 43 -65 43h-72q-87.0157 0 -86 129q0 79 22 135q16 42 0 76q0 1 -4 12q-4.282 11.776 -5 12q33.1905 41 38 41q19 -1 56.5 -23t82.5 -22q134 1 134 152v75h-325v195q0 203 216 271q28 9 61 43q31 -33 65 -44q211 -68 210 -270v-195h-54
v141q0 98 -68.5 157t-152.5 59q-91 0 -156.5 -58t-65.5 -158v-11h324v-283q0 -142 -123 -182q-34 -11 -66 -44q-32 34 -60 43q-8 3 -27 13.5t-22 10.5q-27.2 0 -32 -72q-4 -74 56 -74z" />
    <glyph glyph-name="ML_PA.medi" unicode="&#xf3c6;" horiz-adv-x="498" 
d="M105 131h45q76 -1 74 -97v-75q-15 43 -65 43h-72q-87.0157 0 -86 129q0 79 22 135q16 42 0 76q0 1 -4 12q-4.282 11.776 -5 12q33.1905 41 38 41q19 -1 56.5 -23t82.5 -22q134 1 134 152v75h-325v195q0 203 216 271q28 9 61 43q31 -33 65 -44q211 -68 210 -270v-195h-54
v141q0 98 -68.5 157t-152.5 59q-91 0 -156.5 -58t-65.5 -158v-11h324v-283q0 -142 -123 -182q-34 -11 -66 -44q-32 34 -60 43q-8 3 -27 13.5t-22 10.5q-27.2 0 -32 -72q-4 -74 56 -74z" />
    <glyph glyph-name="ML_QA.init" unicode="&#xf3c7;" horiz-adv-x="860" 
d="M600 708q0 237 -156 238q-159 1 -160 -227q0 -114 33 -177q42 -80 41 -147q-1 -70 -26 -130h-107q29 31 33 113.5q4 85.5 -18 133.5q-41 88 -129 88q-56 0 -126 -34q2 164 125 163q57 0 118 -78q-7 55 -6 100q0 252 160 304q28 9 61 43q29 -31 66 -44q145 -54 145 -292
v-43h236v-130h-182v-160q0 -90 40 -131h-108q-40 40 -40 131v279z" />
    <glyph glyph-name="ML_QA.medi1" unicode="&#xf3c8;" horiz-adv-x="350" 
d="M0 524v195q0 239.689 140 281q47 14 71 43q46 -41 56 -44q137 -47 137 -270v-140h-54v86q0 216 -148 216t-148 -206v-96q0 -78 26 -132q24 -50 68 -75q29 -17 43 -48q14 -30 14 -69h-118q-9 36 -22 54q-65 91 -65 205z" />
    <glyph glyph-name="ML_QA.fina1" unicode="&#xf3c9;" horiz-adv-x="410" 
d="M0 524v195q0 239.689 140 281q47 14 71 43q46 -41 56 -44q137 -47 137 -270v-140h-54v86q0 216 -148 216t-148 -206v-96q0 -78 26 -132q24 -50 68 -75q29 -17 43 -48q14 -30 14 -69h-118q-9 36 -22 54q-65 91 -65 205z" />
    <glyph glyph-name="ML_GA.init" unicode="&#xf3ca;" horiz-adv-x="875" 
d="M452 70q1 -91 40 -130h-109q-39 40 -39 130h108zM768 70q1 -91 40 -130h-109q-39 40 -39 130h108zM615 708q0 237 -156 238q-159 1 -160 -227q0 -114 33 -177q42 -80 41 -147q-1 -70 -26 -130h-107q29 31 33 113.5q4 85.5 -18 133.5q-41 88 -129 88q-56 0 -126 -34
q2 164 125 163q57 0 118 -78q-7 55 -6 100q0 252 160 304q28 9 61 43q29 -31 66 -44q145 -54 145 -292v-43h236v-130h-182v-160q0 -90 40 -131h-108q-40 40 -40 131v279z" />
    <glyph glyph-name="ML_GA.init1" unicode="&#xf3cb;" horiz-adv-x="390" 
d="M205 362v-152q-15 16 -71 47q-134 73 -134 267v239q0 238 163 292q27 9 60 43q32 -33 66 -44q160 -55 160 -291v-174h-59v120q0 237 -166 237q-170 1 -170 -227v-130q0 -201 151 -227z" />
    <glyph glyph-name="ML_GA.medi1" unicode="&#xf3cc;" horiz-adv-x="350" 
d="M0 524v195q0 239.689 140 281q47 14 71 43q46 -41 56 -44q137 -47 137 -270v-140h-54v86q0 216 -148 216t-148 -206v-96q0 -78 26 -132q24 -50 68 -75q29 -17 43 -48q14 -30 14 -69h-118q-9 36 -22 54q-65 91 -65 205z" />
    <glyph glyph-name="ML_GA.medi2" unicode="&#xf3cd;" horiz-adv-x="520" 
d="M550 719v-130h-182v-162q0 -90 40 -130h-108q-40 41 -40 130v162h-152v-162q0 -90 40 -130h-108q-40 41 -40 130v292h550z" />
    </font>
</defs>
</svg>
